<?xml version="1.0" encoding="UTF-8"?>
<!DOCTYPE svg PUBLIC "-//W3C//DTD SVG 1.1//EN" "http://www.w3.org/Graphics/SVG/1.1/DTD/svg11.dtd">
<svg xmlns="http://www.w3.org/2000/svg" version="1.1" width="535px" height="466px" style="shape-rendering:geometricPrecision; text-rendering:geometricPrecision; image-rendering:optimizeQuality; fill-rule:evenodd; clip-rule:evenodd" xmlns:xlink="http://www.w3.org/1999/xlink">
<g><path style="opacity:0.718" fill="#bcda98" d="M 97.5,44.5 C 96.448,44.3505 95.448,44.5172 94.5,45C 91.2661,48.6703 87.9328,52.1703 84.5,55.5C 87.0444,50.1166 90.8778,45.7832 96,42.5C 96.7172,43.0442 97.2172,43.7109 97.5,44.5 Z"/></g>
<g><path style="opacity:0.802" fill="#f2d171" d="M 255.5,48.5 C 265.533,48.6241 275.533,49.2908 285.5,50.5C 287.59,50.4274 289.59,50.094 291.5,49.5C 291.5,50.8333 290.833,51.5 289.5,51.5C 277.964,51.1505 266.63,50.1505 255.5,48.5 Z"/></g>
<g><path style="opacity:1" fill="#eec23c" d="M 255.5,48.5 C 266.63,50.1505 277.964,51.1505 289.5,51.5C 288.444,56.0177 286.444,60.0177 283.5,63.5C 284.051,60.1933 284.384,56.8599 284.5,53.5C 282.801,53.6204 281.135,53.9537 279.5,54.5C 278.034,53.8645 276.7,53.0312 275.5,52C 260.496,51.6112 245.496,51.7778 230.5,52.5C 238.634,50.4547 246.967,49.1213 255.5,48.5 Z"/></g>
<g><path style="opacity:1" fill="#8fc349" d="M 433.5,88.5 C 432.148,84.5896 430.982,80.5896 430,76.5C 430.055,84.1643 430.055,91.8309 430,99.5C 427.708,98.2101 425.708,96.5435 424,94.5C 421.19,91.5355 419.024,88.2022 417.5,84.5C 416.431,76.5353 416.264,68.5353 417,60.5C 419.38,56.4064 421.213,52.0731 422.5,47.5C 423.583,47.4606 424.583,47.1272 425.5,46.5C 426.096,47.7161 426.263,49.0494 426,50.5C 429.15,48.8388 430.65,49.8388 430.5,53.5C 432.582,53.472 434.416,54.1387 436,55.5C 440.332,67.0556 440.498,78.5556 436.5,90C 435.212,90.2387 434.212,89.7387 433.5,88.5 Z"/></g>
<g><path style="opacity:1" fill="#fcbe10" d="M 283.5,63.5 C 279.995,69.8474 275.995,75.8474 271.5,81.5C 266.973,84.6933 262.973,88.6933 259.5,93.5C 258.675,94.3857 257.675,94.719 256.5,94.5C 256.66,96.1992 256.494,97.8659 256,99.5C 253.833,101.667 251.667,103.833 249.5,106C 248.216,106.684 247.049,106.517 246,105.5C 245.503,108.146 245.336,110.813 245.5,113.5C 242.973,115.51 241.139,118.177 240,121.5C 239.177,130.01 239.343,138.344 240.5,146.5C 240.858,149.267 241.525,151.933 242.5,154.5C 243.065,160.17 244.398,165.67 246.5,171C 245.167,171.667 243.833,171.667 242.5,171C 238.038,168.043 233.705,164.876 229.5,161.5C 225.17,156.337 220.336,151.67 215,147.5C 214.691,146.234 214.191,145.067 213.5,144C 211.76,142.306 209.76,141.139 207.5,140.5C 202.245,133.909 197.079,127.242 192,120.5C 191.517,119.552 191.351,118.552 191.5,117.5C 191.785,115.712 191.452,114.045 190.5,112.5C 189.833,112.833 189.167,113.167 188.5,113.5C 187.476,112.147 186.143,111.48 184.5,111.5C 184.665,114.85 184.498,118.183 184,121.5C 183.333,120.167 182.667,120.167 182,121.5C 181,120.5 180,119.5 179,118.5C 178.13,119.108 177.63,119.941 177.5,121C 179.291,128.416 180.125,135.916 180,143.5C 177.67,140.818 177.17,141.151 178.5,144.5C 177.803,152.813 177.137,161.146 176.5,169.5C 177.312,171.623 177.978,173.79 178.5,176C 177.927,181.727 177.26,187.393 176.5,193C 177.294,197.555 178.96,201.721 181.5,205.5C 181.081,206.672 180.415,207.672 179.5,208.5C 182.033,210.914 183.533,213.914 184,217.5C 184.837,215.993 186.004,215.493 187.5,216C 188.78,218.132 188.78,220.298 187.5,222.5C 189.003,223.052 190.669,223.052 192.5,222.5C 192.38,224.199 192.046,225.865 191.5,227.5C 193.458,229.529 193.458,231.863 191.5,234.5C 191.833,234.833 192.167,235.167 192.5,235.5C 192.976,232.881 194.309,230.881 196.5,229.5C 196.749,230.582 196.915,231.915 197,233.5C 198.011,232.663 199.178,232.33 200.5,232.5C 200.318,234.591 200.652,236.591 201.5,238.5C 204.716,239.996 207.716,241.663 210.5,243.5C 212.745,243.541 213.412,244.375 212.5,246C 216.377,246.257 220.043,247.257 223.5,249C 228.833,249.667 234.167,249.667 239.5,249C 241.058,248.79 242.391,248.29 243.5,247.5C 244.167,247.5 244.833,247.5 245.5,247.5C 247.103,239.489 248.436,231.155 249.5,222.5C 248.033,219.734 247.2,216.734 247,213.5C 245.989,212.663 244.822,212.33 243.5,212.5C 243.695,206.894 241.028,203.561 235.5,202.5C 235.473,199.77 236.14,197.27 237.5,195C 237.05,193.45 236.883,191.95 237,190.5C 239.041,191.423 241.208,191.756 243.5,191.5C 242.812,194.619 243.645,194.953 246,192.5C 247.333,194.5 249,196.167 251,197.5C 250.984,201.764 251.817,205.764 253.5,209.5C 252.104,210.852 251.437,212.519 251.5,214.5C 252.768,217.314 253.601,220.314 254,223.5C 254.5,241.164 254.667,258.83 254.5,276.5C 236.167,277.369 217.834,278.535 199.5,280C 193.611,281.512 187.944,283.346 182.5,285.5C 174.844,286.999 167.177,288.499 159.5,290C 154.041,292.421 148.708,294.921 143.5,297.5C 139.803,298.008 136.136,298.674 132.5,299.5C 130.733,297.062 129.399,294.395 128.5,291.5C 128.657,290.127 128.49,288.793 128,287.5C 122.615,278.511 119.115,268.845 117.5,258.5C 116.859,257.007 115.859,256.007 114.5,255.5C 114.5,255.167 114.5,254.833 114.5,254.5C 111.623,233.613 110.79,212.613 112,191.5C 115.035,184.758 115.868,177.758 114.5,170.5C 115.314,163.069 117.314,156.069 120.5,149.5C 127.299,138.048 133.632,126.381 139.5,114.5C 140.5,114.5 141.5,114.5 142.5,114.5C 142.343,113.127 142.51,111.793 143,110.5C 149.817,102.382 156.984,94.549 164.5,87C 167.965,85.6774 171.299,84.1774 174.5,82.5C 174.22,79.6118 175.553,78.1118 178.5,78C 180.141,76.871 181.141,75.371 181.5,73.5C 187.242,71.6398 192.909,69.4731 198.5,67C 200.112,66.2797 201.612,66.4464 203,67.5C 203.309,66.2341 203.809,65.0674 204.5,64C 208.63,63.5694 212.297,62.0694 215.5,59.5C 218.086,58.52 220.753,58.1866 223.5,58.5C 223.5,57.1667 223.5,55.8333 223.5,54.5C 226.388,55.0102 228.721,54.3435 230.5,52.5C 245.496,51.7778 260.496,51.6112 275.5,52C 276.7,53.0312 278.034,53.8645 279.5,54.5C 281.135,53.9537 282.801,53.6204 284.5,53.5C 284.384,56.8599 284.051,60.1933 283.5,63.5 Z"/></g>
<g><path style="opacity:1" fill="#e5d271" d="M 292.5,49.5 C 295.57,52.0311 298.904,54.0311 302.5,55.5C 300.139,55.3259 297.806,54.9926 295.5,54.5C 295.5,55.5 295.5,56.5 295.5,57.5C 294.883,57.3893 294.383,57.056 294,56.5C 293.56,54.1341 293.06,51.8008 292.5,49.5 Z"/></g>
<g><path style="opacity:1" fill="#fcbe10" d="M 363.5,92.5 C 364.833,93.1667 365.833,94.1667 366.5,95.5C 367.991,100.744 371.158,104.744 376,107.5C 376.333,109.167 376.667,110.833 377,112.5C 377.333,112.167 377.667,111.833 378,111.5C 378.245,113.663 379.245,115.33 381,116.5C 381.825,118.701 381.325,120.534 379.5,122C 382.04,123.04 383.707,124.874 384.5,127.5C 385.478,127.023 386.311,126.357 387,125.5C 388.043,127.701 388.877,130.034 389.5,132.5C 390.736,133.246 392.07,133.579 393.5,133.5C 394.711,138.793 395.877,144.127 397,149.5C 399.263,152.826 401.43,156.16 403.5,159.5C 402.528,162.464 402.362,165.464 403,168.5C 403.333,167.833 403.667,167.167 404,166.5C 404.333,171.5 404.667,176.5 405,181.5C 405.333,179.5 405.667,177.5 406,175.5C 407.966,179.925 409.3,184.591 410,189.5C 410.697,207.179 410.53,224.846 409.5,242.5C 409.599,245.237 409.265,247.904 408.5,250.5C 407.85,250.804 407.183,251.137 406.5,251.5C 405.604,254.144 404.771,256.81 404,259.5C 403.911,255.972 403.244,252.638 402,249.5C 402.172,255.127 401.338,260.794 399.5,266.5C 399.54,268.429 399.873,270.262 400.5,272C 398.269,273.277 396.602,275.111 395.5,277.5C 396.51,280.813 396.51,284.146 395.5,287.5C 394.153,288.171 392.986,288.171 392,287.5C 391,290.167 390,290.167 389,287.5C 386.828,290.196 385.328,293.196 384.5,296.5C 388.089,296.484 388.255,297.484 385,299.5C 383.165,297.916 381.165,296.583 379,295.5C 378.508,294.451 378.674,293.451 379.5,292.5C 376.788,291.772 374.121,290.939 371.5,290C 362.151,288.943 352.817,287.777 343.5,286.5C 338.134,284.983 332.801,283.149 327.5,281C 319.486,280.61 311.486,280.11 303.5,279.5C 301.123,278.113 298.457,277.279 295.5,277C 286.506,276.5 277.506,276.334 268.5,276.5C 268.478,258.13 269.144,239.796 270.5,221.5C 268.909,215.88 269.242,210.38 271.5,205C 270.841,202.538 270.507,200.038 270.5,197.5C 271.822,197.67 272.989,197.337 274,196.5C 277.369,199.495 279.203,198.662 279.5,194C 279.415,192.893 279.081,191.893 278.5,191C 284.011,186.224 287.344,187.724 288.5,195.5C 288.333,196.167 288.167,196.833 288,197.5C 287.751,196.376 287.251,195.376 286.5,194.5C 285.756,195.991 285.09,197.491 284.5,199C 285.416,199.278 286.082,199.778 286.5,200.5C 284.801,200.34 283.134,200.506 281.5,201C 279.5,204.333 277.5,207.667 275.5,211C 279.597,216.292 278.597,220.625 272.5,224C 274.329,231.575 275.496,239.408 276,247.5C 278.997,251.477 282.997,253.477 288,253.5C 293.544,252.564 299.044,252.564 304.5,253.5C 311.336,249.73 317.003,244.73 321.5,238.5C 320.185,236.801 320.185,235.135 321.5,233.5C 323.081,231.858 323.747,229.858 323.5,227.5C 326.022,222.52 329.189,217.853 333,213.5C 334.154,209.553 334.987,205.553 335.5,201.5C 338.078,195.868 339.744,189.868 340.5,183.5C 341.733,167.157 341.566,150.823 340,134.5C 339.122,128.033 337.622,121.7 335.5,115.5C 332.288,115.712 330.288,117.379 329.5,120.5C 328.079,123.009 326.412,125.343 324.5,127.5C 319.821,132.018 315.654,137.018 312,142.5C 307.595,146.417 303.095,150.084 298.5,153.5C 298.44,152.957 298.107,152.624 297.5,152.5C 296.614,153.325 296.281,154.325 296.5,155.5C 294.516,155.617 292.85,154.95 291.5,153.5C 292.95,152.15 293.617,150.484 293.5,148.5C 295.65,146.24 297.817,143.907 300,141.5C 300.718,142.451 301.551,142.617 302.5,142C 301.378,138.591 301.211,135.091 302,131.5C 303.947,127.716 305.28,123.716 306,119.5C 306.667,109.5 306.667,99.5 306,89.5C 304.109,85.3889 303.109,81.0556 303,76.5C 301.968,74.0056 300.802,71.6723 299.5,69.5C 299.335,66.4816 299.502,63.4816 300,60.5C 300.333,60.8333 300.667,61.1667 301,61.5C 301.249,60.376 301.749,59.376 302.5,58.5C 305.443,59.2435 308.443,59.7435 311.5,60C 312.337,61.0113 312.67,62.1779 312.5,63.5C 315.167,63.5 317.833,63.5 320.5,63.5C 320.67,64.8221 320.337,65.9887 319.5,67C 322.833,67.3333 326.167,67.6667 329.5,68C 328.24,69.8138 328.24,71.6471 329.5,73.5C 332.289,74.1487 334.956,75.1487 337.5,76.5C 340.866,75.2282 341.199,75.8949 338.5,78.5C 340.473,79.3311 342.473,79.4978 344.5,79C 345.167,80.6667 345.833,82.3333 346.5,84C 349.73,85.308 353.064,86.308 356.5,87C 358.441,89.4536 360.775,91.287 363.5,92.5 Z"/></g>
<g><path style="opacity:1" fill="#f4c139" d="M 230.5,52.5 C 228.721,54.3435 226.388,55.0102 223.5,54.5C 223.5,55.8333 223.5,57.1667 223.5,58.5C 220.753,58.1866 218.086,58.52 215.5,59.5C 212.297,62.0694 208.63,63.5694 204.5,64C 203.809,65.0674 203.309,66.2341 203,67.5C 201.612,66.4464 200.112,66.2797 198.5,67C 192.909,69.4731 187.242,71.6398 181.5,73.5C 196.146,62.8311 212.48,55.8311 230.5,52.5 Z"/></g>
<g><path style="opacity:1" fill="#9bc467" d="M 99.5,47.5 C 109.326,61.4606 109.826,75.794 101,90.5C 99.6288,92.0414 98.1288,93.3747 96.5,94.5C 99.5797,90.2247 102.08,85.5581 104,80.5C 104.831,73.8085 104.664,67.1418 103.5,60.5C 101.91,56.1865 100.576,51.8532 99.5,47.5 Z"/></g>
<g><path style="opacity:1" fill="#8ec53e" d="M 426.5,51.5 C 427.5,51.5 428.5,51.5 429.5,51.5C 428.908,56.6475 430.741,60.6475 435,63.5C 435.2,70.8826 435.7,78.2159 436.5,85.5C 436.192,86.3081 435.692,86.9747 435,87.5C 433.664,84.0224 432.831,80.3557 432.5,76.5C 430.922,71.2698 429.255,71.2698 427.5,76.5C 429.258,80.8296 428.425,81.8296 425,79.5C 422.506,81.1669 421.006,83.5002 420.5,86.5C 419.914,86.2907 419.414,85.9574 419,85.5C 418.333,79.5 418.333,73.5 419,67.5C 419.219,66.062 419.719,64.7287 420.5,63.5C 421.086,63.7093 421.586,64.0426 422,64.5C 422.206,67.6229 422.873,70.6229 424,73.5C 426.885,69.7242 427.052,65.8909 424.5,62C 425.128,58.4527 425.795,54.9527 426.5,51.5 Z"/></g>
<g><path style="opacity:1" fill="#a0c671" d="M 422.5,47.5 C 421.213,52.0731 419.38,56.4064 417,60.5C 416.264,68.5353 416.431,76.5353 417.5,84.5C 413.683,75.3967 413.516,66.0634 417,56.5C 418.357,53.1019 420.19,50.1019 422.5,47.5 Z"/></g>
<g><path style="opacity:1" fill="#f2c237" d="M 302.5,55.5 C 320.679,61.0891 337.345,69.5891 352.5,81C 356.37,84.7023 360.037,88.5357 363.5,92.5C 360.775,91.287 358.441,89.4536 356.5,87C 353.064,86.308 349.73,85.308 346.5,84C 345.833,82.3333 345.167,80.6667 344.5,79C 342.473,79.4978 340.473,79.3311 338.5,78.5C 341.199,75.8949 340.866,75.2282 337.5,76.5C 334.956,75.1487 332.289,74.1487 329.5,73.5C 328.24,71.6471 328.24,69.8138 329.5,68C 326.167,67.6667 322.833,67.3333 319.5,67C 320.337,65.9887 320.67,64.8221 320.5,63.5C 317.833,63.5 315.167,63.5 312.5,63.5C 312.67,62.1779 312.337,61.0113 311.5,60C 308.443,59.7435 305.443,59.2435 302.5,58.5C 301.749,59.376 301.249,60.376 301,61.5C 300.667,61.1667 300.333,60.8333 300,60.5C 299.502,63.4816 299.335,66.4816 299.5,69.5C 297.565,65.7866 296.232,61.7866 295.5,57.5C 295.5,56.5 295.5,55.5 295.5,54.5C 297.806,54.9926 300.139,55.3259 302.5,55.5 Z"/></g>
<g><path style="opacity:1" fill="#a2c86f" d="M 433.5,88.5 C 434.212,89.7387 435.212,90.2387 436.5,90C 440.498,78.5556 440.332,67.0556 436,55.5C 434.416,54.1387 432.582,53.472 430.5,53.5C 430.65,49.8388 429.15,48.8388 426,50.5C 426.263,49.0494 426.096,47.7161 425.5,46.5C 424.583,47.1272 423.583,47.4606 422.5,47.5C 422.794,44.3539 424.461,43.1872 427.5,44C 439.318,53.783 443.818,66.283 441,81.5C 439.779,87.166 437.779,92.4993 435,97.5C 434.304,94.5219 433.804,91.5219 433.5,88.5 Z"/></g>
<g><path style="opacity:0.494" fill="#bbd1c9" d="M 114.5,81.5 C 113.5,81.5 112.5,81.5 111.5,81.5C 113.124,78.2099 115.457,75.5433 118.5,73.5C 119.583,74.365 119.749,75.365 119,76.5C 117.634,78.3617 116.134,80.0283 114.5,81.5 Z"/></g>
<g><path style="opacity:1" fill="#8fc445" d="M 97.5,44.5 C 98.9063,44.9731 99.573,45.9731 99.5,47.5C 100.576,51.8532 101.91,56.1865 103.5,60.5C 104.664,67.1418 104.831,73.8085 104,80.5C 102.08,85.5581 99.5797,90.2247 96.5,94.5C 95.2073,96.2959 93.7073,97.9625 92,99.5C 91.6667,99.1667 91.3333,98.8333 91,98.5C 91.2203,91.8448 91.2203,85.1781 91,78.5C 90.6481,80.2475 90.1481,81.9142 89.5,83.5C 87.7868,84.6354 87.1201,86.302 87.5,88.5C 84.6545,88.1913 83.1545,86.5246 83,83.5C 82.0209,74.0296 82.5209,64.6962 84.5,55.5C 87.9328,52.1703 91.2661,48.6703 94.5,45C 95.448,44.5172 96.448,44.3505 97.5,44.5 Z"/></g>
<g><path style="opacity:0.957" fill="#9bc2a8" d="M 413.5,86.5 C 412.078,85.075 410.411,84.075 408.5,83.5C 406.289,81.439 404.623,78.939 403.5,76C 403.85,74.7425 404.517,74.4092 405.5,75C 408.802,78.4556 411.469,82.289 413.5,86.5 Z"/></g>
<g><path style="opacity:1" fill="#a8c87a" d="M 84.5,55.5 C 82.5209,64.6962 82.0209,74.0296 83,83.5C 83.1545,86.5246 84.6545,88.1913 87.5,88.5C 87.1201,86.302 87.7868,84.6354 89.5,83.5C 88.6434,87.6352 87.4767,91.6352 86,95.5C 80.9122,85.7895 79.2456,75.4562 81,64.5C 81.5053,61.135 82.672,58.135 84.5,55.5 Z"/></g>
<g><path style="opacity:1" fill="#8fc345" d="M 127.5,84.5 C 131.626,84.572 135.626,85.2387 139.5,86.5C 138.898,90.3641 137.732,94.0308 136,97.5C 134.644,98.3802 133.144,98.7135 131.5,98.5C 131.5,100.167 131.5,101.833 131.5,103.5C 128.66,103.898 125.993,104.731 123.5,106C 120.833,106.667 118.167,106.667 115.5,106C 115.043,105.586 114.709,105.086 114.5,104.5C 115.554,102.799 116.554,101.132 117.5,99.5C 117.44,98.9569 117.107,98.6236 116.5,98.5C 113.96,99.4021 111.46,100.402 109,101.5C 108.5,101.167 108,100.833 107.5,100.5C 111.552,91.7697 118.219,86.4363 127.5,84.5 Z"/></g>
<g><path style="opacity:1" fill="#72a944" d="M 259.5,157.5 C 259.613,149.811 260.113,142.145 261,134.5C 262.4,133.252 263.9,132.252 265.5,131.5C 263.35,139.755 263.017,148.088 264.5,156.5C 268.081,156.862 271.081,155.862 273.5,153.5C 274.552,153.649 275.552,153.483 276.5,153C 277.155,150.841 278.488,149.341 280.5,148.5C 287.532,145.123 290.866,139.457 290.5,131.5C 291.234,130.292 291.567,128.959 291.5,127.5C 292.927,125.852 293.76,123.852 294,121.5C 294.167,117.167 294.333,112.833 294.5,108.5C 294.492,103.778 293.825,99.4451 292.5,95.5C 292.153,89.703 291.153,84.0363 289.5,78.5C 288.635,77.4173 287.635,77.2506 286.5,78C 283.853,80.8012 281.853,83.9679 280.5,87.5C 280.5,87.8333 280.5,88.1667 280.5,88.5C 280.167,88.5 279.833,88.5 279.5,88.5C 278.272,89.3065 277.272,90.3065 276.5,91.5C 275.5,91.5 274.5,91.5 273.5,91.5C 273.529,88.3443 275.196,86.6777 278.5,86.5C 279.474,84.2573 279.808,81.924 279.5,79.5C 280.833,79.5 282.167,79.5 283.5,79.5C 283.238,78.0222 283.571,76.6888 284.5,75.5C 286.811,74.7865 288.978,73.7865 291,72.5C 291.382,76.2683 293.049,79.2683 296,81.5C 296.578,85.7209 297.411,89.8876 298.5,94C 295.909,96.7709 295.909,99.6042 298.5,102.5C 297.593,104.256 297.593,106.089 298.5,108C 298.231,109.607 297.397,110.774 296,111.5C 295.362,116.927 295.862,122.26 297.5,127.5C 296.345,130.011 295.678,132.678 295.5,135.5C 294.167,135.5 292.833,135.5 291.5,135.5C 292.074,139.267 290.907,142.267 288,144.5C 287.922,146.657 287.755,148.657 287.5,150.5C 281.873,149.963 277.54,152.297 274.5,157.5C 271.04,158.37 267.54,159.037 264,159.5C 262.167,159.481 260.667,158.815 259.5,157.5 Z"/></g>
<g><path style="opacity:0.929" fill="#9fc469" d="M 127.5,84.5 C 131.709,83.3862 136.042,83.5529 140.5,85C 141.167,85.6667 141.833,86.3333 142.5,87C 140.434,93.6513 136.767,99.1513 131.5,103.5C 131.5,101.833 131.5,100.167 131.5,98.5C 133.144,98.7135 134.644,98.3802 136,97.5C 137.732,94.0308 138.898,90.3641 139.5,86.5C 135.626,85.2387 131.626,84.572 127.5,84.5 Z"/></g>
<g><path style="opacity:1" fill="#ddc12c" d="M 271.5,81.5 C 263.209,92.4588 254.543,103.126 245.5,113.5C 245.336,110.813 245.503,108.146 246,105.5C 247.049,106.517 248.216,106.684 249.5,106C 251.667,103.833 253.833,101.667 256,99.5C 256.494,97.8659 256.66,96.1992 256.5,94.5C 257.675,94.719 258.675,94.3857 259.5,93.5C 262.973,88.6933 266.973,84.6933 271.5,81.5 Z"/></g>
<g><path style="opacity:0.988" fill="#94be59" d="M 401.5,98.5 C 400.5,98.5 399.5,98.5 398.5,98.5C 398.5,96.8333 398.5,95.1667 398.5,93.5C 400.833,93.5 403.167,93.5 405.5,93.5C 405.719,92.325 405.386,91.325 404.5,90.5C 401.827,89.4986 399.493,87.9986 397.5,86C 392.561,83.9099 387.727,84.0766 383,86.5C 382.833,87.1667 382.667,87.8333 382.5,88.5C 383.783,92.812 385.616,96.812 388,100.5C 391.991,103.747 396.491,105.747 401.5,106.5C 401.5,105.5 401.5,104.5 401.5,103.5C 400.448,103.649 399.448,103.483 398.5,103C 400.5,102.667 402.5,102.333 404.5,102C 403.027,101.29 402.36,100.124 402.5,98.5C 417.347,105.932 416.014,109.099 398.5,108C 393.937,107.1 390.104,104.933 387,101.5C 383.745,97.0752 381.245,92.2419 379.5,87C 387.045,82.3883 394.712,82.3883 402.5,87C 407.417,90.2878 411.084,94.6211 413.5,100C 413.167,100.5 412.833,101 412.5,101.5C 408.749,100.027 405.083,98.3604 401.5,96.5C 400.537,96.9698 400.537,97.6365 401.5,98.5 Z"/></g>
<g><path style="opacity:1" fill="#4f9669" d="M 111.5,81.5 C 112.5,81.5 113.5,81.5 114.5,81.5C 103.418,96.9935 94.4184,113.66 87.5,131.5C 89.6323,122.787 92.9656,114.454 97.5,106.5C 97.1667,106.167 96.8333,105.833 96.5,105.5C 95.272,108.013 93.6054,110.013 91.5,111.5C 97.1641,100.841 103.831,90.8405 111.5,81.5 Z"/></g>
<g><path style="opacity:1" fill="#8dc542" d="M 401.5,98.5 C 401.833,98.5 402.167,98.5 402.5,98.5C 402.36,100.124 403.027,101.29 404.5,102C 402.5,102.333 400.5,102.667 398.5,103C 399.448,103.483 400.448,103.649 401.5,103.5C 401.5,104.5 401.5,105.5 401.5,106.5C 396.491,105.747 391.991,103.747 388,100.5C 385.616,96.812 383.783,92.812 382.5,88.5C 382.667,87.8333 382.833,87.1667 383,86.5C 387.727,84.0766 392.561,83.9099 397.5,86C 399.493,87.9986 401.827,89.4986 404.5,90.5C 405.386,91.325 405.719,92.325 405.5,93.5C 403.167,93.5 400.833,93.5 398.5,93.5C 398.5,95.1667 398.5,96.8333 398.5,98.5C 399.5,98.5 400.5,98.5 401.5,98.5 Z"/></g>
<g><path style="opacity:1" fill="#97c05e" d="M 117.5,99.5 C 116.554,101.132 115.554,102.799 114.5,104.5C 114.709,105.086 115.043,105.586 115.5,106C 118.167,106.667 120.833,106.667 123.5,106C 125.993,104.731 128.66,103.898 131.5,103.5C 129.11,106.028 126.11,107.528 122.5,108C 117.291,108.866 112.291,108.199 107.5,106C 110.447,103.217 113.78,101.05 117.5,99.5 Z"/></g>
<g><path style="opacity:1" fill="#e1c225" d="M 299.5,69.5 C 300.802,71.6723 301.968,74.0056 303,76.5C 303.109,81.0556 304.109,85.3889 306,89.5C 306.667,99.5 306.667,109.5 306,119.5C 305.28,123.716 303.947,127.716 302,131.5C 301.211,135.091 301.378,138.591 302.5,142C 301.551,142.617 300.718,142.451 300,141.5C 297.817,143.907 295.65,146.24 293.5,148.5C 294.809,145.222 296.642,142.222 299,139.5C 299.259,136.413 299.759,133.413 300.5,130.5C 302.961,122.151 303.961,113.484 303.5,104.5C 303.983,95.8285 302.983,87.4952 300.5,79.5C 300.384,76.1401 300.051,72.8067 299.5,69.5 Z"/></g>
<g><path style="opacity:0.98" fill="#ebc147" d="M 181.5,73.5 C 181.141,75.371 180.141,76.871 178.5,78C 175.553,78.1118 174.22,79.6118 174.5,82.5C 171.299,84.1774 167.965,85.6774 164.5,87C 156.984,94.549 149.817,102.382 143,110.5C 142.51,111.793 142.343,113.127 142.5,114.5C 141.5,114.5 140.5,114.5 139.5,114.5C 150.214,97.4527 164.214,83.786 181.5,73.5 Z"/></g>
<g><path style="opacity:1" fill="#fcfefa" d="M 289.5,86.5 C 292.086,101.465 292.086,116.465 289.5,131.5C 289.167,132.833 288.833,134.167 288.5,135.5C 286.606,136.048 284.94,137.048 283.5,138.5C 282.466,141.443 280.966,144.11 279,146.5C 276.41,145.622 274.077,145.622 272,146.5C 271.667,148.5 271.333,150.5 271,152.5C 270,153.833 269,153.833 268,152.5C 267.111,148.848 266.778,145.182 267,141.5C 267.414,141.957 267.914,142.291 268.5,142.5C 269.309,128.731 273.642,116.397 281.5,105.5C 280.167,105.167 278.833,104.833 277.5,104.5C 280.699,99.6854 282.532,94.3521 283,88.5C 284.406,87.3318 285.572,87.6652 286.5,89.5C 287.288,88.2299 288.288,87.2299 289.5,86.5 Z"/></g>
<g><path style="opacity:1" fill="#4a966a" d="M 408.5,83.5 C 410.411,84.075 412.078,85.075 413.5,86.5C 422.245,96.3067 429.245,107.307 434.5,119.5C 432.406,117.441 430.572,115.107 429,112.5C 428.833,113 428.667,113.5 428.5,114C 430.935,120.033 432.935,126.2 434.5,132.5C 427.677,115.187 419.01,98.8535 408.5,83.5 Z"/></g>
<g><path style="opacity:1" fill="#8bac32" d="M 300.5,79.5 C 302.983,87.4952 303.983,95.8285 303.5,104.5C 303.961,113.484 302.961,122.151 300.5,130.5C 301.212,113.561 301.212,96.5614 300.5,79.5 Z"/></g>
<g><path style="opacity:1" fill="#f3c12c" d="M 366.5,95.5 C 377.953,106.4 386.953,119.067 393.5,133.5C 392.07,133.579 390.736,133.246 389.5,132.5C 388.877,130.034 388.043,127.701 387,125.5C 386.311,126.357 385.478,127.023 384.5,127.5C 383.707,124.874 382.04,123.04 379.5,122C 381.325,120.534 381.825,118.701 381,116.5C 379.245,115.33 378.245,113.663 378,111.5C 377.667,111.833 377.333,112.167 377,112.5C 376.667,110.833 376.333,109.167 376,107.5C 371.158,104.744 367.991,100.744 366.5,95.5 Z"/></g>
<g><path style="opacity:1" fill="#59ae7c" d="M 87.5,118.5 C 85.8042,123.058 84.3042,127.724 83,132.5C 81.3029,135.02 79.4695,137.353 77.5,139.5C 80.085,132.043 83.4183,125.043 87.5,118.5 Z"/></g>
<g><path style="opacity:1" fill="#82aa33" d="M 191.5,117.5 C 191.351,118.552 191.517,119.552 192,120.5C 197.079,127.242 202.245,133.909 207.5,140.5C 210.547,143.545 213.213,146.878 215.5,150.5C 210.025,148.697 205.692,145.364 202.5,140.5C 200.556,139.811 198.556,139.311 196.5,139C 195.446,137.612 195.28,136.112 196,134.5C 196.414,134.957 196.914,135.291 197.5,135.5C 198.402,129.753 196.068,126.753 190.5,126.5C 189.167,132.167 187.833,137.833 186.5,143.5C 185.808,142.975 185.308,142.308 185,141.5C 183.994,154.816 183.494,168.149 183.5,181.5C 182.505,169.011 182.171,156.344 182.5,143.5C 183.995,134.639 185.495,125.639 187,116.5C 188.816,115.257 190.316,115.59 191.5,117.5 Z"/></g>
<g><path style="opacity:1" fill="#ccbf2d" d="M 335.5,201.5 C 341.074,173.11 340.574,144.777 334,116.5C 332.629,118.041 331.129,119.375 329.5,120.5C 330.288,117.379 332.288,115.712 335.5,115.5C 337.622,121.7 339.122,128.033 340,134.5C 341.566,150.823 341.733,167.157 340.5,183.5C 339.744,189.868 338.078,195.868 335.5,201.5 Z"/></g>
<g><path style="opacity:1" fill="#f5fbe7" d="M 289.5,86.5 C 288.288,87.2299 287.288,88.2299 286.5,89.5C 285.572,87.6652 284.406,87.3318 283,88.5C 282.532,94.3521 280.699,99.6854 277.5,104.5C 278.833,104.833 280.167,105.167 281.5,105.5C 273.642,116.397 269.309,128.731 268.5,142.5C 267.914,142.291 267.414,141.957 267,141.5C 266.778,145.182 267.111,148.848 268,152.5C 269,153.833 270,153.833 271,152.5C 271.333,150.5 271.667,148.5 272,146.5C 274.077,145.622 276.41,145.622 279,146.5C 280.966,144.11 282.466,141.443 283.5,138.5C 284.94,137.048 286.606,136.048 288.5,135.5C 285.815,139.845 283.149,144.178 280.5,148.5C 278.488,149.341 277.155,150.841 276.5,153C 275.552,153.483 274.552,153.649 273.5,153.5C 267.116,155.791 264.116,153.458 264.5,146.5C 265.661,134.546 269.327,123.546 275.5,113.5C 275.703,111.956 276.37,110.622 277.5,109.5C 277.167,109.167 276.833,108.833 276.5,108.5C 275.265,109.34 274.265,110.34 273.5,111.5C 276.677,104.132 279.01,96.4653 280.5,88.5C 280.5,88.1667 280.5,87.8333 280.5,87.5C 282.494,85.1778 284.827,83.1778 287.5,81.5C 289.217,82.6685 289.884,84.3352 289.5,86.5 Z"/></g>
<g><path style="opacity:1" fill="#b9bb31" d="M 324.5,127.5 C 322.672,131.842 319.839,135.509 316,138.5C 314.906,140.078 314.072,141.745 313.5,143.5C 306.85,150.146 299.85,156.479 292.5,162.5C 294.474,159.518 296.474,156.518 298.5,153.5C 303.095,150.084 307.595,146.417 312,142.5C 315.654,137.018 319.821,132.018 324.5,127.5 Z"/></g>
<g><path style="opacity:1" fill="#97ab2e" d="M 245.5,115.5 C 245.444,120.477 244.444,125.144 242.5,129.5C 242.667,131.5 242.833,133.5 243,135.5C 244.947,131.716 246.28,127.716 247,123.5C 248.467,120.213 250.634,117.546 253.5,115.5C 251.763,118.521 249.93,121.521 248,124.5C 247.758,128.43 246.925,132.097 245.5,135.5C 245.149,142.065 244.149,148.399 242.5,154.5C 241.525,151.933 240.858,149.267 240.5,146.5C 240.334,138.826 240.5,131.159 241,123.5C 242.237,120.552 243.737,117.885 245.5,115.5 Z"/></g>
<g><path style="opacity:1" fill="#f2c11e" d="M 279.5,88.5 C 279.833,88.5 280.167,88.5 280.5,88.5C 279.01,96.4653 276.677,104.132 273.5,111.5C 270.272,114.069 268.272,117.402 267.5,121.5C 266.279,122.028 265.113,122.695 264,123.5C 263.337,127.035 261.837,130.035 259.5,132.5C 257.961,137.346 257.294,142.346 257.5,147.5C 256.818,159.044 255.818,170.711 254.5,182.5C 252.408,180.395 250.075,178.728 247.5,177.5C 247.141,175.629 246.141,174.129 244.5,173C 245.449,172.383 246.282,172.549 247,173.5C 248.006,171.466 248.506,169.3 248.5,167C 246.51,156.593 245.51,146.093 245.5,135.5C 246.925,132.097 247.758,128.43 248,124.5C 249.93,121.521 251.763,118.521 253.5,115.5C 264.278,108.392 272.945,99.3915 279.5,88.5 Z"/></g>
<g><path style="opacity:1" fill="#fbbe12" d="M 259.5,132.5 C 258.542,132.953 257.708,133.619 257,134.5C 255.984,133.366 255.317,133.699 255,135.5C 254.974,139.108 254.141,142.442 252.5,145.5C 254.466,148.549 254.966,151.882 254,155.5C 253.586,155.957 253.086,156.291 252.5,156.5C 251.82,152.845 250.82,149.345 249.5,146C 252.262,142.373 251.928,139.04 248.5,136C 249.028,133.138 249.695,130.304 250.5,127.5C 251.425,128.641 252.259,128.641 253,127.5C 253.223,121.133 255.723,115.966 260.5,112C 261.448,111.517 262.448,111.351 263.5,111.5C 266.687,115.737 265.853,120.07 261,124.5C 260.178,127.117 259.678,129.784 259.5,132.5 Z"/></g>
<g><path style="opacity:1" fill="#ecc647" d="M 139.5,114.5 C 133.632,126.381 127.299,138.048 120.5,149.5C 125.043,136.738 131.377,125.072 139.5,114.5 Z"/></g>
<g><path style="opacity:1" fill="#c3bc2d" d="M 245.5,113.5 C 245.5,114.167 245.5,114.833 245.5,115.5C 243.737,117.885 242.237,120.552 241,123.5C 240.5,131.159 240.334,138.826 240.5,146.5C 239.343,138.344 239.177,130.01 240,121.5C 241.139,118.177 242.973,115.51 245.5,113.5 Z"/></g>
<g><path style="opacity:1" fill="#96bc73" d="M 289.5,131.5 C 289.833,131.5 290.167,131.5 290.5,131.5C 290.866,139.457 287.532,145.123 280.5,148.5C 283.149,144.178 285.815,139.845 288.5,135.5C 288.833,134.167 289.167,132.833 289.5,131.5 Z"/></g>
<g><path style="opacity:1" fill="#70ab3a" d="M 215.5,150.5 C 217.112,153.913 219.612,156.579 223,158.5C 223.49,159.793 223.657,161.127 223.5,162.5C 225.467,162.261 227.301,162.594 229,163.5C 230.64,167.392 231.973,171.392 233,175.5C 236.054,177.123 235.554,177.79 231.5,177.5C 230.395,176.4 229.062,175.733 227.5,175.5C 223.208,169.374 218.042,164.041 212,159.5C 212.932,157.418 213.432,155.085 213.5,152.5C 210.729,154.086 207.729,154.586 204.5,154C 203.755,151.429 203.421,148.929 203.5,146.5C 202.5,147.167 201.5,147.833 200.5,148.5C 198.49,146.829 196.157,146.162 193.5,146.5C 193.325,148.621 193.659,150.621 194.5,152.5C 194.5,155.833 194.5,159.167 194.5,162.5C 192.747,176.211 194.081,189.544 198.5,202.5C 199.21,204.746 199.71,207.08 200,209.5C 200.876,211.758 202.043,213.758 203.5,215.5C 203.5,218.167 203.5,220.833 203.5,223.5C 204.552,223.351 205.552,223.517 206.5,224C 207.976,226.643 209.976,228.81 212.5,230.5C 214.396,232.881 214.729,235.381 213.5,238C 215.747,241.2 218.08,241.2 220.5,238C 224.213,237.595 227.879,237.595 231.5,238C 230.839,234.863 229.505,232.03 227.5,229.5C 227.833,229.167 228.167,228.833 228.5,228.5C 229.825,229.791 231.158,231.124 232.5,232.5C 234.045,233.452 235.712,233.785 237.5,233.5C 237.595,228.113 237.095,222.78 236,217.5C 235.623,216.058 234.79,215.058 233.5,214.5C 233.5,213.167 233.5,211.833 233.5,210.5C 233.285,208.821 233.952,207.821 235.5,207.5C 241.855,219.593 244.522,232.593 243.5,246.5C 234.648,246.916 225.981,245.916 217.5,243.5C 214.136,242.108 210.803,240.775 207.5,239.5C 204.175,236.168 201.175,232.501 198.5,228.5C 196.456,223.423 193.623,218.756 190,214.5C 188.711,208.383 187.044,202.383 185,196.5C 184.088,191.536 183.588,186.536 183.5,181.5C 183.494,168.149 183.994,154.816 185,141.5C 185.308,142.308 185.808,142.975 186.5,143.5C 187.833,137.833 189.167,132.167 190.5,126.5C 196.068,126.753 198.402,129.753 197.5,135.5C 196.914,135.291 196.414,134.957 196,134.5C 195.28,136.112 195.446,137.612 196.5,139C 198.556,139.311 200.556,139.811 202.5,140.5C 205.692,145.364 210.025,148.697 215.5,150.5 Z"/></g>
<g><path style="opacity:1" fill="#f1c039" d="M 393.5,133.5 C 403.007,150.191 408.84,168.191 411,187.5C 414.093,206.05 413.593,224.383 409.5,242.5C 410.53,224.846 410.697,207.179 410,189.5C 409.3,184.591 407.966,179.925 406,175.5C 405.667,177.5 405.333,179.5 405,181.5C 404.667,176.5 404.333,171.5 404,166.5C 403.667,167.167 403.333,167.833 403,168.5C 402.362,165.464 402.528,162.464 403.5,159.5C 401.43,156.16 399.263,152.826 397,149.5C 395.877,144.127 394.711,138.793 393.5,133.5 Z"/></g>
<g><path style="opacity:1" fill="#8ead34" d="M 267.5,121.5 C 266.626,124.789 265.959,128.123 265.5,131.5C 263.9,132.252 262.4,133.252 261,134.5C 260.113,142.145 259.613,149.811 259.5,157.5C 258.77,167.475 258.27,177.475 258,187.5C 256.539,188.883 255.706,188.549 255.5,186.5C 257.481,173.876 258.148,160.876 257.5,147.5C 257.294,142.346 257.961,137.346 259.5,132.5C 261.837,130.035 263.337,127.035 264,123.5C 265.113,122.695 266.279,122.028 267.5,121.5 Z"/></g>
<g><path style="opacity:1" fill="#d0e8b8" d="M 275.5,113.5 C 269.327,123.546 265.661,134.546 264.5,146.5C 264.116,153.458 267.116,155.791 273.5,153.5C 271.081,155.862 268.081,156.862 264.5,156.5C 263.017,148.088 263.35,139.755 265.5,131.5C 267.321,126.932 269.155,122.265 271,117.5C 272.371,115.959 273.871,114.625 275.5,113.5 Z"/></g>
<g><path style="opacity:0.831" fill="#54a476" d="M 87.5,131.5 C 83.6707,144.487 80.3373,157.487 77.5,170.5C 78.424,156.755 81.7573,143.755 87.5,131.5 Z"/></g>
<g><path style="opacity:0.955" fill="#51a778" d="M 438.5,145.5 C 440.448,148.493 441.781,151.826 442.5,155.5C 445.263,171.034 446.93,186.701 447.5,202.5C 447.559,209.386 446.892,216.053 445.5,222.5C 445.667,209.163 445.5,195.829 445,182.5C 443.281,170.075 441.115,157.742 438.5,145.5 Z"/></g>
<g><path style="opacity:1" fill="#138a44" d="M 87.5,131.5 C 81.7573,143.755 78.424,156.755 77.5,170.5C 77.5,171.5 77.5,172.5 77.5,173.5C 74.2241,184.456 72.8907,195.79 73.5,207.5C 72.8335,201.986 72.1668,196.319 71.5,190.5C 70.2638,191.246 68.9305,191.579 67.5,191.5C 62.9516,214.141 63.6183,236.475 69.5,258.5C 69.1667,259.833 68.8333,261.167 68.5,262.5C 70.7748,266.112 73.4415,269.446 76.5,272.5C 75.0584,275.05 73.8917,277.716 73,280.5C 72.6667,277.5 72.3333,274.5 72,271.5C 71.3333,270.167 70.6667,270.167 70,271.5C 70.0557,277.18 70.5557,282.846 71.5,288.5C 72.552,288.649 73.552,288.483 74.5,288C 74.1667,287.667 73.8333,287.333 73.5,287C 74.476,282.586 75.8094,282.586 77.5,287C 76.7282,288.221 75.7282,289.221 74.5,290C 78.3762,289.651 78.3762,290.484 74.5,292.5C 75.3966,292.669 76.3966,293.002 77.5,293.5C 76.5345,294.914 75.5345,295.747 74.5,296C 75.8354,297.674 77.1688,299.341 78.5,301C 78.1667,301.333 77.8333,301.667 77.5,302C 78.5396,305.4 79.2062,308.9 79.5,312.5C 71.4152,295.51 66.4152,277.51 64.5,258.5C 61.872,235.157 61.872,211.823 64.5,188.5C 65.145,184.294 66.645,180.294 69,176.5C 69.8856,171.53 70.5523,166.53 71,161.5C 73.6343,154.625 75.801,147.625 77.5,140.5C 77.5,140.167 77.5,139.833 77.5,139.5C 79.4695,137.353 81.3029,135.02 83,132.5C 84.3042,127.724 85.8042,123.058 87.5,118.5C 88.0787,115.669 89.412,113.336 91.5,111.5C 93.6054,110.013 95.272,108.013 96.5,105.5C 96.8333,105.833 97.1667,106.167 97.5,106.5C 92.9656,114.454 89.6323,122.787 87.5,131.5 Z"/></g>
<g><path style="opacity:1" fill="#8bae33" d="M 227.5,175.5 C 223.852,172.858 220.185,170.191 216.5,167.5C 213.192,164.529 209.859,161.529 206.5,158.5C 203.16,154.828 199.827,151.161 196.5,147.5C 195.548,149.045 195.215,150.712 195.5,152.5C 195.167,152.5 194.833,152.5 194.5,152.5C 193.659,150.621 193.325,148.621 193.5,146.5C 196.157,146.162 198.49,146.829 200.5,148.5C 201.5,147.833 202.5,147.167 203.5,146.5C 203.421,148.929 203.755,151.429 204.5,154C 207.729,154.586 210.729,154.086 213.5,152.5C 213.432,155.085 212.932,157.418 212,159.5C 218.042,164.041 223.208,169.374 227.5,175.5 Z"/></g>
<g><path style="opacity:1" fill="#c8c233" d="M 207.5,140.5 C 209.76,141.139 211.76,142.306 213.5,144C 214.191,145.067 214.691,146.234 215,147.5C 220.336,151.67 225.17,156.337 229.5,161.5C 224.852,157.857 220.185,154.19 215.5,150.5C 213.213,146.878 210.547,143.545 207.5,140.5 Z"/></g>
<g><path style="opacity:1" fill="#adbd46" d="M 327.5,151.5 C 327.5,151.833 327.5,152.167 327.5,152.5C 326.833,153.167 326.167,153.833 325.5,154.5C 325.785,152.712 325.452,151.045 324.5,149.5C 319.493,152.843 315.16,156.843 311.5,161.5C 311.5,161.167 311.5,160.833 311.5,160.5C 314.799,155.534 318.799,151.201 323.5,147.5C 326.93,146.258 328.263,147.591 327.5,151.5 Z"/></g>
<g><path style="opacity:1" fill="#dabf2c" d="M 245.5,135.5 C 245.51,146.093 246.51,156.593 248.5,167C 248.506,169.3 248.006,171.466 247,173.5C 246.282,172.549 245.449,172.383 244.5,173C 246.141,174.129 247.141,175.629 247.5,177.5C 240.554,173.22 234.554,167.887 229.5,161.5C 233.705,164.876 238.038,168.043 242.5,171C 243.833,171.667 245.167,171.667 246.5,171C 244.398,165.67 243.065,160.17 242.5,154.5C 244.149,148.399 245.149,142.065 245.5,135.5 Z"/></g>
<g><path style="opacity:1" fill="#fce28e" d="M 325.5,154.5 C 326.09,159.64 325.09,164.307 322.5,168.5C 323.509,163.717 324.509,159.05 325.5,154.5 Z"/></g>
<g><path style="opacity:1" fill="#faf1b7" d="M 194.5,152.5 C 194.833,152.5 195.167,152.5 195.5,152.5C 196.746,158.118 197.913,163.785 199,169.5C 201.148,170.977 202.482,172.977 203,175.5C 204.409,176.781 205.909,177.781 207.5,178.5C 200.218,176.866 196.551,172.199 196.5,164.5C 196.5,163.167 195.833,162.5 194.5,162.5C 194.5,159.167 194.5,155.833 194.5,152.5 Z"/></g>
<g><path style="opacity:1" fill="#f6bf1c" d="M 325.5,154.5 C 324.509,159.05 323.509,163.717 322.5,168.5C 321.069,170.189 320.236,172.189 320,174.5C 318.871,176.141 317.371,177.141 315.5,177.5C 303.739,182.601 294.073,190.268 286.5,200.5C 286.082,199.778 285.416,199.278 284.5,199C 285.09,197.491 285.756,195.991 286.5,194.5C 287.251,195.376 287.751,196.376 288,197.5C 288.167,196.833 288.333,196.167 288.5,195.5C 287.344,187.724 284.011,186.224 278.5,191C 279.081,191.893 279.415,192.893 279.5,194C 279.203,198.662 277.369,199.495 274,196.5C 272.989,197.337 271.822,197.67 270.5,197.5C 270.507,200.038 270.841,202.538 271.5,205C 269.242,210.38 268.909,215.88 270.5,221.5C 269.144,239.796 268.478,258.13 268.5,276.5C 277.506,276.334 286.506,276.5 295.5,277C 298.457,277.279 301.123,278.113 303.5,279.5C 297.974,279.821 292.64,279.488 287.5,278.5C 280.766,277.817 273.932,277.15 267,276.5C 266.5,253.502 266.333,230.502 266.5,207.5C 267.15,205.565 267.483,203.565 267.5,201.5C 268.167,199.833 268.833,198.167 269.5,196.5C 277.597,187.893 286.93,181.059 297.5,176C 301.698,170.637 306.364,165.804 311.5,161.5C 315.16,156.843 319.493,152.843 324.5,149.5C 325.452,151.045 325.785,152.712 325.5,154.5 Z"/></g>
<g><path style="opacity:1" fill="#f2f8d9" d="M 327.5,152.5 C 328.476,170.79 326.81,188.79 322.5,206.5C 322.5,206.833 322.5,207.167 322.5,207.5C 320.5,210.833 318.5,214.167 316.5,217.5C 319.293,211.885 320.96,205.885 321.5,199.5C 322.72,199.113 323.387,198.28 323.5,197C 322.963,195.208 322.63,193.375 322.5,191.5C 324.698,186.421 325.698,181.087 325.5,175.5C 323.801,175.34 322.134,175.506 320.5,176C 318.937,177.947 316.937,179.114 314.5,179.5C 314.833,178.833 315.167,178.167 315.5,177.5C 317.371,177.141 318.871,176.141 320,174.5C 320.236,172.189 321.069,170.189 322.5,168.5C 325.09,164.307 326.09,159.64 325.5,154.5C 326.167,153.833 326.833,153.167 327.5,152.5 Z"/></g>
<g><path style="opacity:1" fill="#e8c43b" d="M 206.5,158.5 C 205.178,158.33 204.011,158.663 203,159.5C 202.033,158.322 201.533,156.989 201.5,155.5C 199.76,156.716 198.76,158.382 198.5,160.5C 199.092,165.658 200.759,170.325 203.5,174.5C 205.901,175.049 208.235,175.882 210.5,177C 215.479,180.184 220.145,183.684 224.5,187.5C 225.5,189.5 226.5,191.5 227.5,193.5C 222.873,190.347 218.873,186.514 215.5,182C 214.207,181.51 212.873,181.343 211.5,181.5C 210.738,179.738 209.404,178.738 207.5,178.5C 205.909,177.781 204.409,176.781 203,175.5C 202.482,172.977 201.148,170.977 199,169.5C 197.913,163.785 196.746,158.118 195.5,152.5C 195.215,150.712 195.548,149.045 196.5,147.5C 199.827,151.161 203.16,154.828 206.5,158.5 Z"/></g>
<g><path style="opacity:1" fill="#cdc234" d="M 311.5,161.5 C 306.364,165.804 301.698,170.637 297.5,176C 286.93,181.059 277.597,187.893 269.5,196.5C 270.619,193.112 272.619,190.279 275.5,188C 280.655,183.506 286.322,179.839 292.5,177C 298.121,170.87 304.454,165.703 311.5,161.5 Z"/></g>
<g><path style="opacity:1" fill="#429f68" d="M 77.5,140.5 C 75.801,147.625 73.6343,154.625 71,161.5C 70.5523,166.53 69.8856,171.53 69,176.5C 66.645,180.294 65.145,184.294 64.5,188.5C 66.3559,171.736 70.6892,155.736 77.5,140.5 Z"/></g>
<g><path style="opacity:1" fill="#c5e0b2" d="M 194.5,162.5 C 195.833,162.5 196.5,163.167 196.5,164.5C 195.039,177.138 195.706,189.804 198.5,202.5C 194.081,189.544 192.747,176.211 194.5,162.5 Z"/></g>
<g><path style="opacity:1" fill="#228e4f" d="M 434.5,119.5 C 444.202,136.601 450.869,154.935 454.5,174.5C 455.5,182.5 456.5,190.5 457.5,198.5C 454.745,188.117 452.578,177.45 451,166.5C 449.034,162.075 447.7,157.409 447,152.5C 446.586,152.957 446.086,153.291 445.5,153.5C 444.416,152.335 443.583,151.002 443,149.5C 442.505,151.473 442.338,153.473 442.5,155.5C 441.781,151.826 440.448,148.493 438.5,145.5C 436.39,141.498 435.057,137.165 434.5,132.5C 432.935,126.2 430.935,120.033 428.5,114C 428.667,113.5 428.833,113 429,112.5C 430.572,115.107 432.406,117.441 434.5,119.5 Z"/></g>
<g><path style="opacity:1" fill="#f9be16" d="M 206.5,158.5 C 209.859,161.529 213.192,164.529 216.5,167.5C 216.5,168.833 216.5,170.167 216.5,171.5C 217.5,171.5 218.5,171.5 219.5,171.5C 219.5,172.833 219.5,174.167 219.5,175.5C 222.169,177.133 225.169,178.3 228.5,179C 229.167,180 229.833,181 230.5,182C 235.296,182.603 236.963,185.103 235.5,189.5C 234.066,188.064 232.9,186.398 232,184.5C 229.959,186.65 227.459,187.65 224.5,187.5C 220.145,183.684 215.479,180.184 210.5,177C 208.235,175.882 205.901,175.049 203.5,174.5C 200.759,170.325 199.092,165.658 198.5,160.5C 198.76,158.382 199.76,156.716 201.5,155.5C 201.533,156.989 202.033,158.322 203,159.5C 204.011,158.663 205.178,158.33 206.5,158.5 Z"/></g>
<g><path style="opacity:1" fill="#f1c11b" d="M 191.5,117.5 C 190.316,115.59 188.816,115.257 187,116.5C 185.495,125.639 183.995,134.639 182.5,143.5C 179.738,160.739 179.905,178.073 183,195.5C 184.984,201.727 186.651,208.06 188,214.5C 191.591,219.138 195.091,223.805 198.5,228.5C 201.175,232.501 204.175,236.168 207.5,239.5C 208.147,241.141 209.147,242.474 210.5,243.5C 207.716,241.663 204.716,239.996 201.5,238.5C 200.652,236.591 200.318,234.591 200.5,232.5C 199.178,232.33 198.011,232.663 197,233.5C 196.915,231.915 196.749,230.582 196.5,229.5C 194.309,230.881 192.976,232.881 192.5,235.5C 192.167,235.167 191.833,234.833 191.5,234.5C 193.458,231.863 193.458,229.529 191.5,227.5C 192.046,225.865 192.38,224.199 192.5,222.5C 190.669,223.052 189.003,223.052 187.5,222.5C 188.78,220.298 188.78,218.132 187.5,216C 186.004,215.493 184.837,215.993 184,217.5C 183.533,213.914 182.033,210.914 179.5,208.5C 180.415,207.672 181.081,206.672 181.5,205.5C 178.96,201.721 177.294,197.555 176.5,193C 177.26,187.393 177.927,181.727 178.5,176C 177.978,173.79 177.312,171.623 176.5,169.5C 177.137,161.146 177.803,152.813 178.5,144.5C 177.17,141.151 177.67,140.818 180,143.5C 180.125,135.916 179.291,128.416 177.5,121C 177.63,119.941 178.13,119.108 179,118.5C 180,119.5 181,120.5 182,121.5C 182.667,120.167 183.333,120.167 184,121.5C 184.498,118.183 184.665,114.85 184.5,111.5C 186.143,111.48 187.476,112.147 188.5,113.5C 189.167,113.167 189.833,112.833 190.5,112.5C 191.452,114.045 191.785,115.712 191.5,117.5 Z"/></g>
<g><path style="opacity:1" fill="#cec233" d="M 257.5,147.5 C 258.148,160.876 257.481,173.876 255.5,186.5C 252.862,183.526 250.195,180.526 247.5,177.5C 250.075,178.728 252.408,180.395 254.5,182.5C 255.818,170.711 256.818,159.044 257.5,147.5 Z"/></g>
<g><path style="opacity:1" fill="#77aa34" d="M 291.5,49.5 C 291.833,49.5 292.167,49.5 292.5,49.5C 293.06,51.8008 293.56,54.1341 294,56.5C 294.383,57.056 294.883,57.3893 295.5,57.5C 296.232,61.7866 297.565,65.7866 299.5,69.5C 300.051,72.8067 300.384,76.1401 300.5,79.5C 301.212,96.5614 301.212,113.561 300.5,130.5C 299.759,133.413 299.259,136.413 299,139.5C 296.642,142.222 294.809,145.222 293.5,148.5C 289.696,153.136 285.362,157.303 280.5,161C 278.026,161.037 276.026,161.87 274.5,163.5C 271.193,164.051 267.86,164.384 264.5,164.5C 264.5,171.5 264.5,178.5 264.5,185.5C 266.179,185.715 267.179,185.048 267.5,183.5C 272.851,180.993 277.184,177.159 280.5,172C 284.999,169.32 288.999,166.153 292.5,162.5C 299.85,156.479 306.85,150.146 313.5,143.5C 313.343,144.873 313.51,146.207 314,147.5C 315.356,146.62 316.856,146.286 318.5,146.5C 318.5,147.5 318.5,148.5 318.5,149.5C 317.448,149.351 316.448,149.517 315.5,150C 312.299,152.702 309.632,155.869 307.5,159.5C 308.689,160.429 310.022,160.762 311.5,160.5C 311.5,160.833 311.5,161.167 311.5,161.5C 304.454,165.703 298.121,170.87 292.5,177C 286.322,179.839 280.655,183.506 275.5,188C 272.619,190.279 270.619,193.112 269.5,196.5C 268.833,198.167 268.167,199.833 267.5,201.5C 266.442,202.6 265.608,203.934 265,205.5C 264.5,229.498 264.333,253.498 264.5,277.5C 263.747,267.979 262.914,258.313 262,248.5C 260.47,250.226 259.47,252.226 259,254.5C 258.828,261.013 258.328,267.347 257.5,273.5C 257.667,251.497 257.5,229.497 257,207.5C 256.084,204.443 254.584,201.776 252.5,199.5C 251.951,197.099 251.118,194.765 250,192.5C 246.635,189.632 243.135,186.966 239.5,184.5C 236.833,182.167 234.167,179.833 231.5,177.5C 235.554,177.79 236.054,177.123 233,175.5C 231.973,171.392 230.64,167.392 229,163.5C 227.301,162.594 225.467,162.261 223.5,162.5C 223.657,161.127 223.49,159.793 223,158.5C 219.612,156.579 217.112,153.913 215.5,150.5C 220.185,154.19 224.852,157.857 229.5,161.5C 234.554,167.887 240.554,173.22 247.5,177.5C 250.195,180.526 252.862,183.526 255.5,186.5C 255.706,188.549 256.539,188.883 258,187.5C 258.27,177.475 258.77,167.475 259.5,157.5C 260.667,158.815 262.167,159.481 264,159.5C 267.54,159.037 271.04,158.37 274.5,157.5C 277.54,152.297 281.873,149.963 287.5,150.5C 287.755,148.657 287.922,146.657 288,144.5C 290.907,142.267 292.074,139.267 291.5,135.5C 292.833,135.5 294.167,135.5 295.5,135.5C 295.678,132.678 296.345,130.011 297.5,127.5C 295.862,122.26 295.362,116.927 296,111.5C 297.397,110.774 298.231,109.607 298.5,108C 297.593,106.089 297.593,104.256 298.5,102.5C 295.909,99.6042 295.909,96.7709 298.5,94C 297.411,89.8876 296.578,85.7209 296,81.5C 293.049,79.2683 291.382,76.2683 291,72.5C 288.978,73.7865 286.811,74.7865 284.5,75.5C 283.571,76.6888 283.238,78.0222 283.5,79.5C 282.167,79.5 280.833,79.5 279.5,79.5C 279.808,81.924 279.474,84.2573 278.5,86.5C 275.196,86.6777 273.529,88.3443 273.5,91.5C 274.5,91.5 275.5,91.5 276.5,91.5C 269.43,100.233 261.763,108.233 253.5,115.5C 250.634,117.546 248.467,120.213 247,123.5C 246.28,127.716 244.947,131.716 243,135.5C 242.833,133.5 242.667,131.5 242.5,129.5C 244.444,125.144 245.444,120.477 245.5,115.5C 245.5,114.833 245.5,114.167 245.5,113.5C 254.543,103.126 263.209,92.4588 271.5,81.5C 275.995,75.8474 279.995,69.8474 283.5,63.5C 286.444,60.0177 288.444,56.0177 289.5,51.5C 290.833,51.5 291.5,50.8333 291.5,49.5 Z"/></g>
<g><path style="opacity:1" fill="#cdc63b" d="M 274.5,163.5 C 271.829,165.118 268.829,165.785 265.5,165.5C 264.88,171.926 265.547,177.926 267.5,183.5C 267.179,185.048 266.179,185.715 264.5,185.5C 264.5,178.5 264.5,171.5 264.5,164.5C 267.86,164.384 271.193,164.051 274.5,163.5 Z"/></g>
<g><path style="opacity:1" fill="#f0c11d" d="M 293.5,148.5 C 293.617,150.484 292.95,152.15 291.5,153.5C 292.85,154.95 294.516,155.617 296.5,155.5C 296.281,154.325 296.614,153.325 297.5,152.5C 298.107,152.624 298.44,152.957 298.5,153.5C 296.474,156.518 294.474,159.518 292.5,162.5C 288.999,166.153 284.999,169.32 280.5,172C 277.184,177.159 272.851,180.993 267.5,183.5C 265.547,177.926 264.88,171.926 265.5,165.5C 268.829,165.785 271.829,165.118 274.5,163.5C 276.026,161.87 278.026,161.037 280.5,161C 285.362,157.303 289.696,153.136 293.5,148.5 Z"/></g>
<g><path style="opacity:1" fill="#9ab165" d="M 275.5,113.5 C 273.871,114.625 272.371,115.959 271,117.5C 269.155,122.265 267.321,126.932 265.5,131.5C 265.959,128.123 266.626,124.789 267.5,121.5C 268.272,117.402 270.272,114.069 273.5,111.5C 274.265,110.34 275.265,109.34 276.5,108.5C 276.833,108.833 277.167,109.167 277.5,109.5C 276.37,110.622 275.703,111.956 275.5,113.5 Z"/></g>
<g><path style="opacity:1" fill="#92bb72" d="M 292.5,95.5 C 293.825,99.4451 294.492,103.778 294.5,108.5C 294.333,112.833 294.167,117.167 294,121.5C 293.76,123.852 292.927,125.852 291.5,127.5C 292.43,116.872 292.763,106.205 292.5,95.5 Z"/></g>
<g><path style="opacity:1" fill="#dcf1ca" d="M 292.5,95.5 C 292.763,106.205 292.43,116.872 291.5,127.5C 291.567,128.959 291.234,130.292 290.5,131.5C 290.167,131.5 289.833,131.5 289.5,131.5C 292.086,116.465 292.086,101.465 289.5,86.5C 289.884,84.3352 289.217,82.6685 287.5,81.5C 284.827,83.1778 282.494,85.1778 280.5,87.5C 281.853,83.9679 283.853,80.8012 286.5,78C 287.635,77.2506 288.635,77.4173 289.5,78.5C 291.153,84.0363 292.153,89.703 292.5,95.5 Z"/></g>
<g><path style="opacity:1" fill="#b8bc36" d="M 279.5,88.5 C 272.945,99.3915 264.278,108.392 253.5,115.5C 261.763,108.233 269.43,100.233 276.5,91.5C 277.272,90.3065 278.272,89.3065 279.5,88.5 Z"/></g>
<g><path style="opacity:1" fill="#7dae58" d="M 327.5,151.5 C 328.222,151.918 328.722,152.584 329,153.5C 330.776,169.58 329.61,185.58 325.5,201.5C 324.604,203.336 323.604,205.003 322.5,206.5C 326.81,188.79 328.476,170.79 327.5,152.5C 327.5,152.167 327.5,151.833 327.5,151.5 Z"/></g>
<g><path style="opacity:1" fill="#6dab3b" d="M 319.5,221.5 C 319.907,216.693 320.907,212.026 322.5,207.5C 322.5,207.167 322.5,206.833 322.5,206.5C 323.604,205.003 324.604,203.336 325.5,201.5C 329.61,185.58 330.776,169.58 329,153.5C 328.722,152.584 328.222,151.918 327.5,151.5C 328.263,147.591 326.93,146.258 323.5,147.5C 318.799,151.201 314.799,155.534 311.5,160.5C 310.022,160.762 308.689,160.429 307.5,159.5C 309.632,155.869 312.299,152.702 315.5,150C 316.448,149.517 317.448,149.351 318.5,149.5C 318.5,148.5 318.5,147.5 318.5,146.5C 316.856,146.286 315.356,146.62 314,147.5C 313.51,146.207 313.343,144.873 313.5,143.5C 315.135,142.185 316.801,142.185 318.5,143.5C 320.897,139.471 323.563,135.637 326.5,132C 327.744,131.544 328.577,132.044 329,133.5C 329.308,132.692 329.808,132.025 330.5,131.5C 332.071,132.309 333.738,132.643 335.5,132.5C 335.466,141.679 335.799,150.845 336.5,160C 335.282,172.138 334.449,184.305 334,196.5C 332.151,199.54 330.984,202.874 330.5,206.5C 328.833,204.833 327.833,205.167 327.5,207.5C 327.482,209.373 327.982,209.706 329,208.5C 329.667,211.167 329.667,213.833 329,216.5C 328.439,217.022 327.772,217.355 327,217.5C 325.699,216.107 324.199,215.607 322.5,216C 322.011,218.209 321.011,220.042 319.5,221.5 Z"/></g>
<g><path style="opacity:1" fill="#f8fcf2" d="M 316.5,217.5 C 313.627,222.716 309.96,227.383 305.5,231.5C 304.41,232.857 303.076,233.857 301.5,234.5C 298.886,235.545 296.22,236.045 293.5,236C 294.252,235.329 294.586,234.496 294.5,233.5C 304.858,224.117 309.692,212.451 309,198.5C 307.178,202.814 305.344,207.148 303.5,211.5C 302.904,213.745 301.904,215.745 300.5,217.5C 296.731,221.771 292.731,225.938 288.5,230C 287.552,230.483 286.552,230.649 285.5,230.5C 285.5,227.5 285.5,224.5 285.5,221.5C 287.138,216.952 288.471,212.285 289.5,207.5C 294.193,200.482 298.859,193.482 303.5,186.5C 306.622,183.432 310.289,181.098 314.5,179.5C 316.937,179.114 318.937,177.947 320.5,176C 322.134,175.506 323.801,175.34 325.5,175.5C 325.698,181.087 324.698,186.421 322.5,191.5C 322.63,193.375 322.963,195.208 323.5,197C 323.387,198.28 322.72,199.113 321.5,199.5C 320.96,205.885 319.293,211.885 316.5,217.5 Z"/></g>
<g><path style="opacity:1" fill="#c1bc42" d="M 315.5,177.5 C 315.167,178.167 314.833,178.833 314.5,179.5C 310.289,181.098 306.622,183.432 303.5,186.5C 300.911,187.419 298.911,189.086 297.5,191.5C 296.504,191.414 295.671,191.748 295,192.5C 291.218,197.424 287.718,202.424 284.5,207.5C 285.167,205.167 285.833,202.833 286.5,200.5C 294.073,190.268 303.739,182.601 315.5,177.5 Z"/></g>
<g><path style="opacity:1" fill="#bebd35" d="M 182.5,143.5 C 182.171,156.344 182.505,169.011 183.5,181.5C 183.588,186.536 184.088,191.536 185,196.5C 187.044,202.383 188.711,208.383 190,214.5C 193.623,218.756 196.456,223.423 198.5,228.5C 195.091,223.805 191.591,219.138 188,214.5C 186.651,208.06 184.984,201.727 183,195.5C 179.905,178.073 179.738,160.739 182.5,143.5 Z"/></g>
<g><path style="opacity:1" fill="#f7fcf2" d="M 196.5,164.5 C 196.551,172.199 200.218,176.866 207.5,178.5C 209.404,178.738 210.738,179.738 211.5,181.5C 220.094,188.015 226.261,196.349 230,206.5C 230.949,208.093 232.115,209.426 233.5,210.5C 233.5,211.833 233.5,213.167 233.5,214.5C 235.253,220.017 236.253,225.683 236.5,231.5C 235.448,231.649 234.448,231.483 233.5,231C 229.702,227.188 226.035,223.355 222.5,219.5C 221.332,215.499 219.499,211.833 217,208.5C 215.316,203.937 213.816,199.27 212.5,194.5C 211.345,197.446 211.179,200.446 212,203.5C 213.337,208.172 214.671,212.839 216,217.5C 216.383,218.056 216.883,218.389 217.5,218.5C 220.689,224.454 224.356,230.288 228.5,236C 223.878,236.301 219.878,234.801 216.5,231.5C 211.386,226.727 207.052,221.394 203.5,215.5C 202.043,213.758 200.876,211.758 200,209.5C 199.71,207.08 199.21,204.746 198.5,202.5C 195.706,189.804 195.039,177.138 196.5,164.5 Z"/></g>
<g><path style="opacity:1" fill="#8daf51" d="M 211.5,181.5 C 212.873,181.343 214.207,181.51 215.5,182C 218.873,186.514 222.873,190.347 227.5,193.5C 227.343,194.873 227.51,196.207 228,197.5C 231.126,200.432 233.626,203.765 235.5,207.5C 233.952,207.821 233.285,208.821 233.5,210.5C 232.115,209.426 230.949,208.093 230,206.5C 226.261,196.349 220.094,188.015 211.5,181.5 Z"/></g>
<g><path style="opacity:1" fill="#8db15f" d="M 303.5,186.5 C 298.859,193.482 294.193,200.482 289.5,207.5C 290.766,204.699 291.599,201.699 292,198.5C 295.159,197.178 296.993,194.844 297.5,191.5C 298.911,189.086 300.911,187.419 303.5,186.5 Z"/></g>
<g><path style="opacity:1" fill="#eec139" d="M 114.5,170.5 C 115.868,177.758 115.035,184.758 112,191.5C 110.79,212.613 111.623,233.613 114.5,254.5C 106.501,226.492 106.501,198.492 114.5,170.5 Z"/></g>
<g><path style="opacity:1" fill="#f1c11b" d="M 216.5,167.5 C 220.185,170.191 223.852,172.858 227.5,175.5C 229.062,175.733 230.395,176.4 231.5,177.5C 234.167,179.833 236.833,182.167 239.5,184.5C 241.256,186.617 242.923,188.783 244.5,191C 244.272,191.399 243.938,191.565 243.5,191.5C 241.208,191.756 239.041,191.423 237,190.5C 236.883,191.95 237.05,193.45 237.5,195C 236.14,197.27 235.473,199.77 235.5,202.5C 241.028,203.561 243.695,206.894 243.5,212.5C 244.822,212.33 245.989,212.663 247,213.5C 247.2,216.734 248.033,219.734 249.5,222.5C 248.436,231.155 247.103,239.489 245.5,247.5C 245.971,235.356 244.304,223.522 240.5,212C 239.164,208.476 236.997,205.643 234,203.5C 232.831,199.444 230.664,196.111 227.5,193.5C 226.5,191.5 225.5,189.5 224.5,187.5C 227.459,187.65 229.959,186.65 232,184.5C 232.9,186.398 234.066,188.064 235.5,189.5C 236.963,185.103 235.296,182.603 230.5,182C 229.833,181 229.167,180 228.5,179C 225.169,178.3 222.169,177.133 219.5,175.5C 219.5,174.167 219.5,172.833 219.5,171.5C 218.5,171.5 217.5,171.5 216.5,171.5C 216.5,170.167 216.5,168.833 216.5,167.5 Z"/></g>
<g><path style="opacity:1" fill="#35915f" d="M 454.5,174.5 C 462.475,207.827 462.475,241.161 454.5,274.5C 458.376,249.274 459.376,223.941 457.5,198.5C 456.5,190.5 455.5,182.5 454.5,174.5 Z"/></g>
<g><path style="opacity:0.882" fill="#4ca472" d="M 64.5,188.5 C 61.872,211.823 61.872,235.157 64.5,258.5C 63.1873,254.056 62.354,249.389 62,244.5C 61.3333,230.5 61.3333,216.5 62,202.5C 62.523,197.638 63.3563,192.972 64.5,188.5 Z"/></g>
<g><path style="opacity:1" fill="#268950" d="M 77.5,173.5 C 73.9308,200.77 75.2641,227.77 81.5,254.5C 79.4463,250.808 77.9463,246.808 77,242.5C 75.2847,230.895 74.118,219.228 73.5,207.5C 72.8907,195.79 74.2241,184.456 77.5,173.5 Z"/></g>
<g><path style="opacity:1" fill="#e5c127" d="M 239.5,184.5 C 243.135,186.966 246.635,189.632 250,192.5C 251.118,194.765 251.951,197.099 252.5,199.5C 252.575,202.407 253.409,205.073 255,207.5C 255.5,230.831 255.667,254.164 255.5,277.5C 242.994,278.386 230.327,279.219 217.5,280C 205.646,280.801 193.979,282.634 182.5,285.5C 187.944,283.346 193.611,281.512 199.5,280C 217.834,278.535 236.167,277.369 254.5,276.5C 254.667,258.83 254.5,241.164 254,223.5C 253.601,220.314 252.768,217.314 251.5,214.5C 251.437,212.519 252.104,210.852 253.5,209.5C 251.817,205.764 250.984,201.764 251,197.5C 249,196.167 247.333,194.5 246,192.5C 243.645,194.953 242.812,194.619 243.5,191.5C 243.938,191.565 244.272,191.399 244.5,191C 242.923,188.783 241.256,186.617 239.5,184.5 Z"/></g>
<g><path style="opacity:1" fill="#76aa37" d="M 335.5,201.5 C 334.987,205.553 334.154,209.553 333,213.5C 329.189,217.853 326.022,222.52 323.5,227.5C 320.632,230.688 317.632,233.855 314.5,237C 310.89,238.944 307.557,241.277 304.5,244C 295.975,246.728 287.308,247.228 278.5,245.5C 278.418,238.142 278.752,230.809 279.5,223.5C 279.973,217.75 281.64,212.417 284.5,207.5C 287.718,202.424 291.218,197.424 295,192.5C 295.671,191.748 296.504,191.414 297.5,191.5C 296.993,194.844 295.159,197.178 292,198.5C 291.599,201.699 290.766,204.699 289.5,207.5C 288.624,207.369 287.957,207.702 287.5,208.5C 284.14,215.012 282.473,222.012 282.5,229.5C 283.013,232.019 284.346,234.019 286.5,235.5C 287.167,235.167 287.833,234.833 288.5,234.5C 289.452,236.045 289.785,237.712 289.5,239.5C 294.276,239.439 298.276,237.772 301.5,234.5C 303.076,233.857 304.41,232.857 305.5,231.5C 308.744,229.929 311.411,227.595 313.5,224.5C 315.975,224.036 317.975,223.036 319.5,221.5C 321.011,220.042 322.011,218.209 322.5,216C 324.199,215.607 325.699,216.107 327,217.5C 327.772,217.355 328.439,217.022 329,216.5C 329.667,213.833 329.667,211.167 329,208.5C 327.982,209.706 327.482,209.373 327.5,207.5C 327.833,205.167 328.833,204.833 330.5,206.5C 330.984,202.874 332.151,199.54 334,196.5C 334.449,184.305 335.282,172.138 336.5,160C 335.799,150.845 335.466,141.679 335.5,132.5C 333.738,132.643 332.071,132.309 330.5,131.5C 329.808,132.025 329.308,132.692 329,133.5C 328.577,132.044 327.744,131.544 326.5,132C 323.563,135.637 320.897,139.471 318.5,143.5C 316.801,142.185 315.135,142.185 313.5,143.5C 314.072,141.745 314.906,140.078 316,138.5C 319.839,135.509 322.672,131.842 324.5,127.5C 326.412,125.343 328.079,123.009 329.5,120.5C 331.129,119.375 332.629,118.041 334,116.5C 340.574,144.777 341.074,173.11 335.5,201.5 Z"/></g>
<g><path style="opacity:1" fill="#058d41" d="M 457.5,198.5 C 459.376,223.941 458.376,249.274 454.5,274.5C 439.375,342.283 400.708,391.45 338.5,422C 278.501,446.984 220.167,443.651 163.5,412C 159.258,409.39 155.258,406.557 151.5,403.5C 150.386,402.115 149.386,400.615 148.5,399C 143.142,396.384 138.475,392.884 134.5,388.5C 133.141,386.694 133.475,385.194 135.5,384C 128.348,385.171 125.514,382.004 127,374.5C 126.667,374.167 126.333,373.833 126,373.5C 125.121,376.346 123.454,377.013 121,375.5C 120.517,374.552 120.351,373.552 120.5,372.5C 119.178,372.67 118.011,372.337 117,371.5C 113.715,366.546 110.048,361.88 106,357.5C 103.628,349.48 99.2949,342.813 93,337.5C 90.0494,331.915 86.8828,326.582 83.5,321.5C 81.3754,318.912 80.0421,315.912 79.5,312.5C 79.2062,308.9 78.5396,305.4 77.5,302C 77.8333,301.667 78.1667,301.333 78.5,301C 77.1688,299.341 75.8354,297.674 74.5,296C 75.5345,295.747 76.5345,294.914 77.5,293.5C 76.3966,293.002 75.3966,292.669 74.5,292.5C 78.3762,290.484 78.3762,289.651 74.5,290C 75.7282,289.221 76.7282,288.221 77.5,287C 75.8094,282.586 74.476,282.586 73.5,287C 73.8333,287.333 74.1667,287.667 74.5,288C 73.552,288.483 72.552,288.649 71.5,288.5C 70.5557,282.846 70.0557,277.18 70,271.5C 70.6667,270.167 71.3333,270.167 72,271.5C 72.3333,274.5 72.6667,277.5 73,280.5C 73.8917,277.716 75.0584,275.05 76.5,272.5C 73.4415,269.446 70.7748,266.112 68.5,262.5C 68.8333,261.167 69.1667,259.833 69.5,258.5C 63.6183,236.475 62.9516,214.141 67.5,191.5C 68.9305,191.579 70.2638,191.246 71.5,190.5C 72.1668,196.319 72.8335,201.986 73.5,207.5C 74.118,219.228 75.2847,230.895 77,242.5C 77.9463,246.808 79.4463,250.808 81.5,254.5C 85.8654,271.26 92.1987,287.26 100.5,302.5C 99.8352,305.896 101.002,308.896 104,311.5C 104.251,313.433 104.751,315.266 105.5,317C 104.044,317.423 103.544,318.256 104,319.5C 105.761,323.635 108.927,325.635 113.5,325.5C 112.309,330.118 113.975,332.618 118.5,333C 120.768,334.558 121.934,336.724 122,339.5C 123.11,341.037 124.61,341.703 126.5,341.5C 140.807,355.633 156.473,368.133 173.5,379C 182.952,384.061 192.619,388.561 202.5,392.5C 202.414,393.496 202.748,394.329 203.5,395C 210.046,395.923 216.379,397.589 222.5,400C 229.342,400.779 236.175,401.613 243,402.5C 245.033,402.494 246.866,402.161 248.5,401.5C 310.599,404.079 361.432,381.412 401,333.5C 426.323,300.834 441.156,263.834 445.5,222.5C 446.892,216.053 447.559,209.386 447.5,202.5C 446.93,186.701 445.263,171.034 442.5,155.5C 442.338,153.473 442.505,151.473 443,149.5C 443.583,151.002 444.416,152.335 445.5,153.5C 446.086,153.291 446.586,152.957 447,152.5C 447.7,157.409 449.034,162.075 451,166.5C 452.578,177.45 454.745,188.117 457.5,198.5 Z"/></g>
<g><path style="opacity:1" fill="#a7b634" d="M 279.5,223.5 C 278.752,230.809 278.418,238.142 278.5,245.5C 287.308,247.228 295.975,246.728 304.5,244C 307.557,241.277 310.89,238.944 314.5,237C 317.632,233.855 320.632,230.688 323.5,227.5C 323.747,229.858 323.081,231.858 321.5,233.5C 315.674,237.811 309.674,241.978 303.5,246C 294.902,247.376 286.235,247.876 277.5,247.5C 277.334,240.825 277.5,234.158 278,227.5C 278.21,225.942 278.71,224.609 279.5,223.5 Z"/></g>
<g><path style="opacity:1" fill="#dfc32b" d="M 207.5,239.5 C 210.803,240.775 214.136,242.108 217.5,243.5C 219.48,245.105 221.813,246.272 224.5,247C 230.825,247.5 237.158,247.666 243.5,247.5C 242.391,248.29 241.058,248.79 239.5,249C 234.167,249.667 228.833,249.667 223.5,249C 220.043,247.257 216.377,246.257 212.5,246C 213.412,244.375 212.745,243.541 210.5,243.5C 209.147,242.474 208.147,241.141 207.5,239.5 Z"/></g>
<g><path style="opacity:1" fill="#a5b433" d="M 227.5,193.5 C 230.664,196.111 232.831,199.444 234,203.5C 236.997,205.643 239.164,208.476 240.5,212C 244.304,223.522 245.971,235.356 245.5,247.5C 244.833,247.5 244.167,247.5 243.5,247.5C 237.158,247.666 230.825,247.5 224.5,247C 221.813,246.272 219.48,245.105 217.5,243.5C 225.981,245.916 234.648,246.916 243.5,246.5C 244.522,232.593 241.855,219.593 235.5,207.5C 233.626,203.765 231.126,200.432 228,197.5C 227.51,196.207 227.343,194.873 227.5,193.5 Z"/></g>
<g><path style="opacity:1" fill="#7eae52" d="M 289.5,207.5 C 288.471,212.285 287.138,216.952 285.5,221.5C 284.192,225.019 284.192,228.685 285.5,232.5C 292.185,229.149 297.185,224.149 300.5,217.5C 301.904,215.745 302.904,213.745 303.5,211.5C 305.344,212.204 305.844,213.537 305,215.5C 302.874,221.295 299.54,226.295 295,230.5C 294.517,231.448 294.351,232.448 294.5,233.5C 294.586,234.496 294.252,235.329 293.5,236C 296.22,236.045 298.886,235.545 301.5,234.5C 298.276,237.772 294.276,239.439 289.5,239.5C 289.785,237.712 289.452,236.045 288.5,234.5C 287.833,234.833 287.167,235.167 286.5,235.5C 284.346,234.019 283.013,232.019 282.5,229.5C 282.473,222.012 284.14,215.012 287.5,208.5C 287.957,207.702 288.624,207.369 289.5,207.5 Z"/></g>
<g><path style="opacity:1" fill="#afcc99" d="M 294.5,233.5 C 294.351,232.448 294.517,231.448 295,230.5C 299.54,226.295 302.874,221.295 305,215.5C 305.844,213.537 305.344,212.204 303.5,211.5C 305.344,207.148 307.178,202.814 309,198.5C 309.692,212.451 304.858,224.117 294.5,233.5 Z"/></g>
<g><path style="opacity:1" fill="#82b35d" d="M 222.5,219.5 C 226.035,223.355 229.702,227.188 233.5,231C 234.448,231.483 235.448,231.649 236.5,231.5C 236.253,225.683 235.253,220.017 233.5,214.5C 234.79,215.058 235.623,216.058 236,217.5C 237.095,222.78 237.595,228.113 237.5,233.5C 235.712,233.785 234.045,233.452 232.5,232.5C 231.158,231.124 229.825,229.791 228.5,228.5C 228.167,228.833 227.833,229.167 227.5,229.5C 229.505,232.03 230.839,234.863 231.5,238C 227.879,237.595 224.213,237.595 220.5,238C 218.08,241.2 215.747,241.2 213.5,238C 214.729,235.381 214.396,232.881 212.5,230.5C 209.976,228.81 207.976,226.643 206.5,224C 205.552,223.517 204.552,223.351 203.5,223.5C 203.5,220.833 203.5,218.167 203.5,215.5C 207.052,221.394 211.386,226.727 216.5,231.5C 219.878,234.801 223.878,236.301 228.5,236C 224.356,230.288 220.689,224.454 217.5,218.5C 217.238,217.022 217.571,215.689 218.5,214.5C 219.835,216.201 221.168,217.868 222.5,219.5 Z"/></g>
<g><path style="opacity:1" fill="#a1c685" d="M 300.5,217.5 C 297.185,224.149 292.185,229.149 285.5,232.5C 284.192,228.685 284.192,225.019 285.5,221.5C 285.5,224.5 285.5,227.5 285.5,230.5C 286.552,230.649 287.552,230.483 288.5,230C 292.731,225.938 296.731,221.771 300.5,217.5 Z"/></g>
<g><path style="opacity:1" fill="#b6bb34" d="M 267.5,201.5 C 267.483,203.565 267.15,205.565 266.5,207.5C 265.502,230.661 265.169,253.994 265.5,277.5C 265.167,277.5 264.833,277.5 264.5,277.5C 264.333,253.498 264.5,229.498 265,205.5C 265.608,203.934 266.442,202.6 267.5,201.5 Z"/></g>
<g><path style="opacity:1" fill="#cac339" d="M 252.5,199.5 C 254.584,201.776 256.084,204.443 257,207.5C 257.5,229.497 257.667,251.497 257.5,273.5C 257.843,275.483 257.176,276.817 255.5,277.5C 255.667,254.164 255.5,230.831 255,207.5C 253.409,205.073 252.575,202.407 252.5,199.5 Z"/></g>
<g><path style="opacity:1" fill="#84b460" d="M 322.5,207.5 C 320.907,212.026 319.907,216.693 319.5,221.5C 317.975,223.036 315.975,224.036 313.5,224.5C 311.411,227.595 308.744,229.929 305.5,231.5C 309.96,227.383 313.627,222.716 316.5,217.5C 318.5,214.167 320.5,210.833 322.5,207.5 Z"/></g>
<g><path style="opacity:1" fill="#a9c791" d="M 222.5,219.5 C 221.168,217.868 219.835,216.201 218.5,214.5C 217.571,215.689 217.238,217.022 217.5,218.5C 216.883,218.389 216.383,218.056 216,217.5C 214.671,212.839 213.337,208.172 212,203.5C 211.179,200.446 211.345,197.446 212.5,194.5C 213.816,199.27 215.316,203.937 217,208.5C 219.499,211.833 221.332,215.499 222.5,219.5 Z"/></g>
<g><path style="opacity:1" fill="#d7c32d" d="M 266.5,207.5 C 266.333,230.502 266.5,253.502 267,276.5C 273.932,277.15 280.766,277.817 287.5,278.5C 279.981,278.825 272.648,278.492 265.5,277.5C 265.169,253.994 265.502,230.661 266.5,207.5 Z"/></g>
<g><path style="opacity:1" fill="#f3c01a" d="M 286.5,200.5 C 285.833,202.833 285.167,205.167 284.5,207.5C 281.64,212.417 279.973,217.75 279.5,223.5C 278.71,224.609 278.21,225.942 278,227.5C 277.5,234.158 277.334,240.825 277.5,247.5C 286.235,247.876 294.902,247.376 303.5,246C 309.674,241.978 315.674,237.811 321.5,233.5C 320.185,235.135 320.185,236.801 321.5,238.5C 317.003,244.73 311.336,249.73 304.5,253.5C 299.044,252.564 293.544,252.564 288,253.5C 282.997,253.477 278.997,251.477 276,247.5C 275.496,239.408 274.329,231.575 272.5,224C 278.597,220.625 279.597,216.292 275.5,211C 277.5,207.667 279.5,204.333 281.5,201C 283.134,200.506 284.801,200.34 286.5,200.5 Z"/></g>
<g><path style="opacity:1" fill="#f2be2f" d="M 408.5,250.5 C 406.143,263.63 401.81,275.963 395.5,287.5C 396.51,284.146 396.51,280.813 395.5,277.5C 396.602,275.111 398.269,273.277 400.5,272C 399.873,270.262 399.54,268.429 399.5,266.5C 401.338,260.794 402.172,255.127 402,249.5C 403.244,252.638 403.911,255.972 404,259.5C 404.771,256.81 405.604,254.144 406.5,251.5C 407.183,251.137 407.85,250.804 408.5,250.5 Z"/></g>
<g><path style="opacity:1" fill="#f1c548" d="M 114.5,255.5 C 115.859,256.007 116.859,257.007 117.5,258.5C 119.115,268.845 122.615,278.511 128,287.5C 128.49,288.793 128.657,290.127 128.5,291.5C 121.691,280.419 117.024,268.419 114.5,255.5 Z"/></g>
<g><path style="opacity:1" fill="#6dac3c" d="M 264.5,277.5 C 264.833,277.5 265.167,277.5 265.5,277.5C 272.648,278.492 279.981,278.825 287.5,278.5C 292.64,279.488 297.974,279.821 303.5,279.5C 323.163,283.162 342.83,287.328 362.5,292C 369.88,297.438 378.214,300.605 387.5,301.5C 392.678,305.167 398.012,308.667 403.5,312C 382.333,343.576 354,366.076 318.5,379.5C 315.167,379.5 311.833,379.5 308.5,379.5C 308.5,380.5 308.5,381.5 308.5,382.5C 306.105,383.363 303.771,383.363 301.5,382.5C 302.714,380.931 304.381,380.098 306.5,380C 304.808,378.599 304.141,376.766 304.5,374.5C 305.552,374.649 306.552,374.483 307.5,374C 309.241,370.256 311.741,367.09 315,364.5C 316.862,366.361 316.362,367.694 313.5,368.5C 315.5,369.833 317.5,369.833 319.5,368.5C 319.495,365.896 318.162,363.73 315.5,362C 317.911,359.303 320.744,357.136 324,355.5C 323.705,351.639 325.205,350.306 328.5,351.5C 329.75,348.044 331.25,344.711 333,341.5C 341.918,335.751 349.751,328.751 356.5,320.5C 356.5,319.833 356.5,319.167 356.5,318.5C 358.308,318.509 359.975,318.009 361.5,317C 363.397,314.601 365.731,312.768 368.5,311.5C 371.299,309.262 374.299,307.262 377.5,305.5C 377,305.167 376.5,304.833 376,304.5C 371.02,306.758 366.187,309.091 361.5,311.5C 356.352,313.575 351.352,315.908 346.5,318.5C 336.73,322.305 327.73,327.305 319.5,333.5C 319.027,334.906 318.027,335.573 316.5,335.5C 312.402,337.749 308.402,340.249 304.5,343C 299.792,346.704 295.459,350.871 291.5,355.5C 289.97,356.211 288.637,357.211 287.5,358.5C 282.762,361.569 279.095,365.569 276.5,370.5C 274.184,371.422 272.517,373.089 271.5,375.5C 266.123,379.257 262.456,384.257 260.5,390.5C 251.124,390.362 241.791,389.696 232.5,388.5C 230.685,386.532 230.185,384.198 231,381.5C 237.036,376.011 241.536,369.678 244.5,362.5C 251.782,354.212 259.115,345.879 266.5,337.5C 267.785,335.548 269.451,333.882 271.5,332.5C 277.747,328.922 283.08,324.256 287.5,318.5C 293.34,313.178 299.673,308.345 306.5,304C 305.833,303.833 305.167,303.667 304.5,303.5C 295.982,307.256 287.315,310.756 278.5,314C 273.516,317.269 268.516,320.435 263.5,323.5C 261.853,325.326 259.853,326.66 257.5,327.5C 252.678,328.998 248.678,331.664 245.5,335.5C 237.569,340.435 230.236,346.102 223.5,352.5C 220.353,352.737 217.353,353.57 214.5,355C 213.862,356.707 213.862,358.54 214.5,360.5C 213.178,360.67 212.011,360.337 211,359.5C 210.51,360.793 210.343,362.127 210.5,363.5C 209.5,363.5 208.5,363.5 207.5,363.5C 208.044,367.412 206.377,369.745 202.5,370.5C 201.833,371.5 201.167,372.5 200.5,373.5C 196.535,374.367 192.535,374.367 188.5,373.5C 180.874,370.02 173.54,366.02 166.5,361.5C 169.106,356.567 172.439,352.233 176.5,348.5C 181.303,344.529 185.636,340.029 189.5,335C 192.101,334.08 194.768,333.413 197.5,333C 197.982,331.992 198.148,330.825 198,329.5C 201.354,327.586 203.854,324.919 205.5,321.5C 206.167,321.167 206.833,320.833 207.5,320.5C 209.167,320.5 210.833,320.5 212.5,320.5C 212.5,319.5 212.5,318.5 212.5,317.5C 217.073,316.129 221.073,313.629 224.5,310C 230.903,308.392 236.237,305.226 240.5,300.5C 240.973,299.094 241.973,298.427 243.5,298.5C 249.979,295.351 256.646,292.684 263.5,290.5C 260.894,289.348 258.227,289.182 255.5,290C 249.934,291.19 244.601,292.69 239.5,294.5C 220.158,297.721 202.158,304.054 185.5,313.5C 175.854,317.319 167.188,322.652 159.5,329.5C 154.335,331.338 150.001,334.338 146.5,338.5C 145.738,340.262 144.404,341.262 142.5,341.5C 137.807,335.487 132.641,329.82 127,324.5C 123.334,319.838 120.167,314.838 117.5,309.5C 121.686,306.238 126.353,303.738 131.5,302C 132.252,301.329 132.586,300.496 132.5,299.5C 136.136,298.674 139.803,298.008 143.5,297.5C 148.485,296.509 153.151,294.676 157.5,292C 165.262,291.206 172.928,289.873 180.5,288C 181.381,287.292 182.047,286.458 182.5,285.5C 193.979,282.634 205.646,280.801 217.5,280C 230.327,279.219 242.994,278.386 255.5,277.5C 257.176,276.817 257.843,275.483 257.5,273.5C 258.328,267.347 258.828,261.013 259,254.5C 259.47,252.226 260.47,250.226 262,248.5C 262.914,258.313 263.747,267.979 264.5,277.5 Z"/></g>
<g><path style="opacity:1" fill="#edc122" d="M 303.5,279.5 C 311.486,280.11 319.486,280.61 327.5,281C 332.801,283.149 338.134,284.983 343.5,286.5C 352.817,287.777 362.151,288.943 371.5,290C 374.121,290.939 376.788,291.772 379.5,292.5C 378.674,293.451 378.508,294.451 379,295.5C 381.165,296.583 383.165,297.916 385,299.5C 388.255,297.484 388.089,296.484 384.5,296.5C 385.328,293.196 386.828,290.196 389,287.5C 390,290.167 391,290.167 392,287.5C 392.986,288.171 394.153,288.171 395.5,287.5C 393.841,292.827 391.174,297.493 387.5,301.5C 378.214,300.605 369.88,297.438 362.5,292C 342.83,287.328 323.163,283.162 303.5,279.5 Z"/></g>
<g><path style="opacity:1" fill="#daf0c9" d="M 243.5,298.5 C 245.209,296.187 247.543,294.687 250.5,294C 246.812,293.55 243.146,293.717 239.5,294.5C 244.601,292.69 249.934,291.19 255.5,290C 258.227,289.182 260.894,289.348 263.5,290.5C 256.646,292.684 249.979,295.351 243.5,298.5 Z"/></g>
<g><path style="opacity:1" fill="#a8b638" d="M 182.5,285.5 C 182.047,286.458 181.381,287.292 180.5,288C 172.928,289.873 165.262,291.206 157.5,292C 153.151,294.676 148.485,296.509 143.5,297.5C 148.708,294.921 154.041,292.421 159.5,290C 167.177,288.499 174.844,286.999 182.5,285.5 Z"/></g>
<g><path style="opacity:0.99" fill="#fafdf7" d="M 243.5,298.5 C 241.973,298.427 240.973,299.094 240.5,300.5C 235.029,302.712 229.695,305.212 224.5,308C 218.42,311.577 212.753,315.743 207.5,320.5C 206.833,320.833 206.167,321.167 205.5,321.5C 203.973,321.427 202.973,322.094 202.5,323.5C 197.912,325.426 194.245,328.426 191.5,332.5C 187.239,336.422 182.906,340.422 178.5,344.5C 177.37,345.622 176.703,346.956 176.5,348.5C 172.439,352.233 169.106,356.567 166.5,361.5C 159.643,357.818 153.476,353.151 148,347.5C 147.667,347.833 147.333,348.167 147,348.5C 145.223,346.317 143.723,343.984 142.5,341.5C 144.404,341.262 145.738,340.262 146.5,338.5C 151.114,335.883 155.447,332.883 159.5,329.5C 161.262,329.643 162.929,329.309 164.5,328.5C 167.585,323.931 171.918,321.764 177.5,322C 179.695,318.641 182.362,315.807 185.5,313.5C 202.158,304.054 220.158,297.721 239.5,294.5C 243.146,293.717 246.812,293.55 250.5,294C 247.543,294.687 245.209,296.187 243.5,298.5 Z"/></g>
<g><path style="opacity:1" fill="#b6df98" d="M 368.5,311.5 C 368.631,310.624 368.298,309.957 367.5,309.5C 365.55,310.372 363.55,311.039 361.5,311.5C 366.187,309.091 371.02,306.758 376,304.5C 376.5,304.833 377,305.167 377.5,305.5C 374.299,307.262 371.299,309.262 368.5,311.5 Z"/></g>
<g><path style="opacity:1" fill="#e1f2d4" d="M 287.5,318.5 C 287.703,316.956 288.37,315.622 289.5,314.5C 287.579,313.359 285.579,313.192 283.5,314C 280.328,315.752 277.328,317.752 274.5,320C 270.751,320.918 267.084,322.085 263.5,323.5C 268.516,320.435 273.516,317.269 278.5,314C 287.315,310.756 295.982,307.256 304.5,303.5C 305.167,303.667 305.833,303.833 306.5,304C 299.673,308.345 293.34,313.178 287.5,318.5 Z"/></g>
<g><path style="opacity:0.991" fill="#fbfdf9" d="M 287.5,318.5 C 284.646,320.509 281.646,322.343 278.5,324C 276.259,327.027 273.926,329.86 271.5,332.5C 269.451,333.882 267.785,335.548 266.5,337.5C 265.761,337.369 265.094,337.536 264.5,338C 261.157,341.708 257.824,345.375 254.5,349C 253.207,349.49 251.873,349.657 250.5,349.5C 250.178,353.511 248.178,356.511 244.5,358.5C 243.438,360.022 242.771,361.688 242.5,363.5C 238.356,369.096 234.189,374.762 230,380.5C 229.56,382.866 229.06,385.199 228.5,387.5C 217.801,388.079 208.134,385.412 199.5,379.5C 207.526,370.477 215.526,361.477 223.5,352.5C 230.236,346.102 237.569,340.435 245.5,335.5C 250.342,333.973 254.342,331.306 257.5,327.5C 259.853,326.66 261.853,325.326 263.5,323.5C 267.084,322.085 270.751,320.918 274.5,320C 277.328,317.752 280.328,315.752 283.5,314C 285.579,313.192 287.579,313.359 289.5,314.5C 288.37,315.622 287.703,316.956 287.5,318.5 Z"/></g>
<g><path style="opacity:1" fill="#e3f5d4" d="M 368.5,311.5 C 365.731,312.768 363.397,314.601 361.5,317C 359.975,318.009 358.308,318.509 356.5,318.5C 356.38,317.414 355.713,316.747 354.5,316.5C 351.978,317.762 349.311,318.429 346.5,318.5C 351.352,315.908 356.352,313.575 361.5,311.5C 363.55,311.039 365.55,310.372 367.5,309.5C 368.298,309.957 368.631,310.624 368.5,311.5 Z"/></g>
<g><path style="opacity:1" fill="#86b55f" d="M 240.5,300.5 C 236.237,305.226 230.903,308.392 224.5,310C 221.073,313.629 217.073,316.129 212.5,317.5C 212.5,318.5 212.5,319.5 212.5,320.5C 210.833,320.5 209.167,320.5 207.5,320.5C 212.753,315.743 218.42,311.577 224.5,308C 229.695,305.212 235.029,302.712 240.5,300.5 Z"/></g>
<g><path style="opacity:0.985" fill="#fbfdf9" d="M 356.5,318.5 C 356.5,319.167 356.5,319.833 356.5,320.5C 354.286,321.874 351.953,323.041 349.5,324C 340.03,333.189 330.697,342.356 321.5,351.5C 316.979,354.854 313.646,359.187 311.5,364.5C 307.728,366.8 305.394,370.133 304.5,374.5C 300.919,377.953 298.252,381.953 296.5,386.5C 295.251,388.136 293.584,389.303 291.5,390C 282.158,389.389 272.825,389.555 263.5,390.5C 266.02,385.39 268.687,380.39 271.5,375.5C 272.517,373.089 274.184,371.422 276.5,370.5C 280.557,366.78 284.224,362.78 287.5,358.5C 288.637,357.211 289.97,356.211 291.5,355.5C 300.44,349.556 308.774,342.889 316.5,335.5C 318.027,335.573 319.027,334.906 319.5,333.5C 323.251,332.303 326.918,330.803 330.5,329C 335.515,324.782 340.848,321.282 346.5,318.5C 349.311,318.429 351.978,317.762 354.5,316.5C 355.713,316.747 356.38,317.414 356.5,318.5 Z"/></g>
<g><path style="opacity:1" fill="#1d8849" d="M 100.5,302.5 C 103.736,308.637 107.236,314.637 111,320.5C 116.185,327.559 121.352,334.559 126.5,341.5C 124.61,341.703 123.11,341.037 122,339.5C 121.934,336.724 120.768,334.558 118.5,333C 113.975,332.618 112.309,330.118 113.5,325.5C 108.927,325.635 105.761,323.635 104,319.5C 103.544,318.256 104.044,317.423 105.5,317C 104.751,315.266 104.251,313.433 104,311.5C 101.002,308.896 99.8352,305.896 100.5,302.5 Z"/></g>
<g><path style="opacity:1" fill="#e6f6db" d="M 185.5,313.5 C 182.362,315.807 179.695,318.641 177.5,322C 171.918,321.764 167.585,323.931 164.5,328.5C 162.929,329.309 161.262,329.643 159.5,329.5C 167.188,322.652 175.854,317.319 185.5,313.5 Z"/></g>
<g><path style="opacity:1" fill="#d1e8bf" d="M 346.5,318.5 C 340.848,321.282 335.515,324.782 330.5,329C 326.918,330.803 323.251,332.303 319.5,333.5C 327.73,327.305 336.73,322.305 346.5,318.5 Z"/></g>
<g><path style="opacity:1" fill="#bbd9a0" d="M 202.5,323.5 C 199.129,326.871 195.463,329.871 191.5,332.5C 194.245,328.426 197.912,325.426 202.5,323.5 Z"/></g>
<g><path style="opacity:1" fill="#82b15a" d="M 205.5,321.5 C 203.854,324.919 201.354,327.586 198,329.5C 198.148,330.825 197.982,331.992 197.5,333C 194.768,333.413 192.101,334.08 189.5,335C 185.636,340.029 181.303,344.529 176.5,348.5C 176.703,346.956 177.37,345.622 178.5,344.5C 182.906,340.422 187.239,336.422 191.5,332.5C 195.463,329.871 199.129,326.871 202.5,323.5C 202.973,322.094 203.973,321.427 205.5,321.5 Z"/></g>
<g><path style="opacity:1" fill="#abcd90" d="M 287.5,318.5 C 283.08,324.256 277.747,328.922 271.5,332.5C 273.926,329.86 276.259,327.027 278.5,324C 281.646,322.343 284.646,320.509 287.5,318.5 Z"/></g>
<g><path style="opacity:1" fill="#d4ecc5" d="M 257.5,327.5 C 254.342,331.306 250.342,333.973 245.5,335.5C 248.678,331.664 252.678,328.998 257.5,327.5 Z"/></g>
<g><path style="opacity:1" fill="#97bd7a" d="M 159.5,329.5 C 155.447,332.883 151.114,335.883 146.5,338.5C 150.001,334.338 154.335,331.338 159.5,329.5 Z"/></g>
<g><path style="opacity:1" fill="#79ae4e" d="M 356.5,320.5 C 349.751,328.751 341.918,335.751 333,341.5C 331.25,344.711 329.75,348.044 328.5,351.5C 325.205,350.306 323.705,351.639 324,355.5C 320.744,357.136 317.911,359.303 315.5,362C 318.162,363.73 319.495,365.896 319.5,368.5C 317.5,369.833 315.5,369.833 313.5,368.5C 316.362,367.694 316.862,366.361 315,364.5C 311.741,367.09 309.241,370.256 307.5,374C 306.552,374.483 305.552,374.649 304.5,374.5C 305.394,370.133 307.728,366.8 311.5,364.5C 315.064,360.386 318.397,356.052 321.5,351.5C 330.697,342.356 340.03,333.189 349.5,324C 351.953,323.041 354.286,321.874 356.5,320.5 Z"/></g>
<g><path style="opacity:1" fill="#d1e9bf" d="M 316.5,335.5 C 308.774,342.889 300.44,349.556 291.5,355.5C 295.459,350.871 299.792,346.704 304.5,343C 308.402,340.249 312.402,337.749 316.5,335.5 Z"/></g>
<g><path style="opacity:1" fill="#bfdca8" d="M 321.5,351.5 C 318.397,356.052 315.064,360.386 311.5,364.5C 313.646,359.187 316.979,354.854 321.5,351.5 Z"/></g>
<g><path style="opacity:1" fill="#d1e8bd" d="M 266.5,337.5 C 259.115,345.879 251.782,354.212 244.5,362.5C 243.833,362.833 243.167,363.167 242.5,363.5C 242.771,361.688 243.438,360.022 244.5,358.5C 248.178,356.511 250.178,353.511 250.5,349.5C 251.873,349.657 253.207,349.49 254.5,349C 257.824,345.375 261.157,341.708 264.5,338C 265.094,337.536 265.761,337.369 266.5,337.5 Z"/></g>
<g><path style="opacity:1" fill="#cde5ba" d="M 287.5,358.5 C 284.224,362.78 280.557,366.78 276.5,370.5C 279.095,365.569 282.762,361.569 287.5,358.5 Z"/></g>
<g><path style="opacity:1" fill="#7dad54" d="M 223.5,352.5 C 215.526,361.477 207.526,370.477 199.5,379.5C 195.638,377.738 191.972,375.738 188.5,373.5C 192.535,374.367 196.535,374.367 200.5,373.5C 201.167,372.5 201.833,371.5 202.5,370.5C 206.377,369.745 208.044,367.412 207.5,363.5C 208.5,363.5 209.5,363.5 210.5,363.5C 210.343,362.127 210.51,360.793 211,359.5C 212.011,360.337 213.178,360.67 214.5,360.5C 213.862,358.54 213.862,356.707 214.5,355C 217.353,353.57 220.353,352.737 223.5,352.5 Z"/></g>
<g><path style="opacity:1" fill="#9fc381" d="M 244.5,362.5 C 241.536,369.678 237.036,376.011 231,381.5C 230.185,384.198 230.685,386.532 232.5,388.5C 230.901,388.768 229.568,388.434 228.5,387.5C 229.06,385.199 229.56,382.866 230,380.5C 234.189,374.762 238.356,369.096 242.5,363.5C 243.167,363.167 243.833,362.833 244.5,362.5 Z"/></g>
<g><path style="opacity:1" fill="#76a64b" d="M 304.5,374.5 C 304.141,376.766 304.808,378.599 306.5,380C 304.381,380.098 302.714,380.931 301.5,382.5C 303.771,383.363 306.105,383.363 308.5,382.5C 308.5,381.5 308.5,380.5 308.5,379.5C 311.833,379.5 315.167,379.5 318.5,379.5C 311.642,383.007 304.309,385.34 296.5,386.5C 298.252,381.953 300.919,377.953 304.5,374.5 Z"/></g>
<g><path style="opacity:1" fill="#1b874a" d="M 83.5,321.5 C 86.8828,326.582 90.0494,331.915 93,337.5C 99.2949,342.813 103.628,349.48 106,357.5C 110.048,361.88 113.715,366.546 117,371.5C 118.011,372.337 119.178,372.67 120.5,372.5C 120.351,373.552 120.517,374.552 121,375.5C 123.454,377.013 125.121,376.346 126,373.5C 126.333,373.833 126.667,374.167 127,374.5C 125.514,382.004 128.348,385.171 135.5,384C 133.475,385.194 133.141,386.694 134.5,388.5C 138.475,392.884 143.142,396.384 148.5,399C 149.386,400.615 150.386,402.115 151.5,403.5C 121.145,382.484 98.4785,355.151 83.5,321.5 Z"/></g>
<g><path style="opacity:1" fill="#ddf0d1" d="M 271.5,375.5 C 268.687,380.39 266.02,385.39 263.5,390.5C 262.5,390.5 261.5,390.5 260.5,390.5C 262.456,384.257 266.123,379.257 271.5,375.5 Z"/></g>
<g><path style="opacity:0.973" fill="#1d7f48" d="M 202.5,392.5 C 217.424,397.551 232.757,400.551 248.5,401.5C 246.866,402.161 245.033,402.494 243,402.5C 236.175,401.613 229.342,400.779 222.5,400C 216.379,397.589 210.046,395.923 203.5,395C 202.748,394.329 202.414,393.496 202.5,392.5 Z"/></g>
</svg>
